<?xml version="1.0" encoding="utf-8"?>
<!-- Generator: Adobe Illustrator 19.0.1, SVG Export Plug-In . SVG Version: 6.00 Build 0)  -->
<svg version="1.1" id="annapurna" xmlns="http://www.w3.org/2000/svg" xmlns:xlink="http://www.w3.org/1999/xlink" x="0px" y="0px" viewBox="0 0 2200 1550" style="enable-background:new 0 0 2200 1550;" xml:space="preserve">
	<path class="mountain" d="M2142,1177.3l-46.7-10.5c0,0-51.2-87.4-57.3-88.9c-6-1.5-39.2-30.1-39.2-30.1l-10.5-24.1l-33.1-18.1l-24.1-12.1l-9-13.6 l-36.2-27.1l-21.1-34.7c0,0-16.6-1.5-21.1-1.5s-21.1-12.1-21.1-12.1l-13.9,2.3l-20.8-15.9h-40.7l-37.7-30.8l-18-5.5l-16.6,1.8 l-31.6-24.1l-39.2-37.7l-42.2-52.7l-73.9-81.3l-19.7-33.1l-42.3-45.2l-54.5-84.4l-21.6-16.6v-16.6l-15.8-18.7l-4.3-17.4l-7.5-1.5 l-51.2-63.2l-7.5-24l-7.7-10.8l-5.1-16.5l-16.5-5.1l-7.5-8.5l-53.3-22.6l-44.4-21.1v-18.1l-22-19.6l-34,9v19.6l-37.2,25.6l-7.3,16.6 l-35.8,28.6L981,330.7v18.1l-7.9,20.8L930.6,407h-16.6H893l-21.1,13.1l-34.7,43.2l-19.6,34.6l-15.1,7.5L786,520.5l-33.1,36.2 l-16.6,24.1l-31.6,25.6L657.9,635l-72.3,49.7l-39.2,40.7l-48.2,42.2l-36.2,54.2L450,832.4L438,885.1l-34.7,57.2l-43.7,58.8 l-30.1,43.7l-30.1,70.8l-18.1,36.2l-30.1,19.6l-22.6-9l-18,7.4l-13.7,10.7l-15.8-5.7l-3.8,5.7l-31.6,22l-13.6,26.6h-31.6H82.4 L36,1216.1V1512h2121v-336.2L2142,1177.3z"/>
	<g class="rv">
		<path class="cab" d="M1227.8,180.4c-1.4-0.2-2.9-0.9-4.2-0.6c-17.6,2.9-24.9-9.4-33-22.7c9,0,17.4,0.2,25.7-0.1 	c2.3-0.1,4.6-1.4,6.9-2.1c-0.9-2.2-1.5-4.8-2.9-6.6c-4.7-6.1-9-12.7-14.8-17.6c-4.4-3.7-10.7-7.2-16.1-7.2 	c-30.6-0.4-61.2,0.4-91.9,0.6c-10.2,0.1-20.5-0.1-30.7-0.5c-4.5-0.2-9.8,2.3-12.7-4.7c-1.3-3.1-20,0.4-23.1,2.1 	c-2.7,1.4-6.8,1-10,0.4c-3-0.6-5.7-3.4-8.6-3.5c-13.1-0.4-26.1-0.4-39.2,0c-3.4,0.1-6.7,2.2-9.9,5.4c-3.5-1.7-6.9-3.6-10.6-4.9 	c-4.6-1.6-7.8-0.6-7.5,5.3c0.7,18.7,0.5,37.5,2.3,56.2c0.8,8.5,5.2,16.6,8.3,24.8c2.1,5.6,6.3,7.6,12.5,7.8 	c22.1,0.6,44.2,1.9,65.7,3c1.7-5.1,3.1-9.4,4.5-13.8l2.3,1l2.6,0.1c2.4-1.7,5.3-2.7,8.4-2.7c3.4,0,6.5,1.2,8.9,3.1l1.8,0 	c5.2,1,5.2,0.8,6.9,12.8c3.4,0.2,7,0.4,10.6,0.5c25.8,0.7,51.7,1.6,77.5,1.7c12.6,0,25.2-1.8,37.7-3.3c1.9-0.2,3.5-2.7,4-3.1 	l1.4-0.1c1.3-6.6,7.1-11.6,14.1-11.6c6.2,0,11.5,3.9,13.5,9.5l0.8-0.1c8-5.7,4.1-13,5.7-19.3 	C1236.2,184.4,1233.2,181.3,1227.8,180.4z M952,138.2c-0.3,14.9,0.4,29.9-1.3,44.9c0-20.8,0-41.6,0-62.7c0,0.6,3.4,1.5,4.1,1.8 	C953.7,128.2,952.1,133.2,952,138.2z M976.4,174.3c-21.5-0.5-18.6,4-19.1-19.7c-0.1-6.5,1.8-9.4,8.7-9c7.9,0.5,15.9,0.2,23.8,0.1 	c4.7-0.1,6.9,1.9,6.4,6.6c-0.1,0.6,0,1.1,0,1.7C996.7,174.3,996.7,174.3,976.4,174.3z M1016.5,123.3c-15.6,0-31.3,0-46.9,0 	c0-1.7,0.1-1.7,0.1-1.7c15.6,0,31.2,0,46.8,0C1016.5,121.6,1016.5,121.6,1016.5,123.3z M1038.2,201.4 	C1038.3,201.4,1038.3,201.4,1038.2,201.4C1038.3,201.4,1038.3,201.4,1038.2,201.4z M1093.5,168.7c-4.8-0.3-9.7-0.1-14.5-0.1 	c-4.5,0-9.1-0.3-13.6,0.1c-6.2,0.5-8.5-1.7-8.5-8.2c0-6.6,2.6-8.3,8.6-8.1c9.4,0.4,18.7,0.4,28.1,0c6.7-0.3,7,3.6,7.1,8.7 	C1100.8,166.4,1099.2,169,1093.5,168.7z M1126.4,169.4c-5.1,0-8.5,0-11.9,0c0-6.8,0-15.4,0-22.2c3.4,0,6.8,0,11.9,0 	C1126.4,154,1126.4,160.9,1126.4,169.4z M1164.9,140.7c0-2.4,2.6-6.7,4.4-6.9c7.8-0.8,16.2-1.9,23.5,0.2c5.4,1.6,9.5,8,14.1,12.3 	c-0.5,1-1.1,2.1-1.6,3.1c-12.2,0-24.5,0.3-36.7-0.4C1167.1,148.9,1164.9,143.6,1164.9,140.7z M1171.6,177.3c-1.1,0-2.8-2.6-2.9-4.2 	c-0.4-3.9-0.1-7.8-0.1-12.2c17.3-2.6,19.7-1.2,28.6,16.5C1188.2,177.5,1179.9,177.7,1171.6,177.3z"/>
		<path class="roof" d="M1100.8,108c0,4.3,0,6.8,0,10.2c13.6,0,28.2,0,43.7,0C1131.2,102.8,1114.4,110.2,1100.8,108z"/>
		<path class="wheel" d="M1043.4,202.6c-3.6,2.6-5.9,6.8-5.9,11.6c0,7.9,6.4,14.3,14.3,14.3s14.3-6.4,14.3-14.3c0-4.5-2.1-8.6-5.4-11.2 	c-2.5-2-5.6-3.1-8.9-3.1C1048.7,199.8,1045.8,200.8,1043.4,202.6z M1051.8,221.5c-4.1,0-7.4-3.3-7.4-7.4c0-4.1,3.3-7.4,7.4-7.4 	c4.1,0,7.4,3.3,7.4,7.4C1059.2,218.2,1055.9,221.5,1051.8,221.5z"/>
		<path class="wheel" d="M1214.8,199.8c-7,0-12.8,5-14.1,11.6c-0.2,0.9-0.3,1.8-0.3,2.7c0,7.9,6.4,14.3,14.3,14.3s14.3-6.4,14.3-14.3 	c0-1.7-0.3-3.3-0.9-4.9C1226.3,203.8,1221,199.8,1214.8,199.8z M1222.2,214.1c0,4.1-3.3,7.4-7.4,7.4c-4.1,0-7.4-3.3-7.4-7.4 	c0-4.1,3.3-7.4,7.4-7.4C1218.9,206.8,1222.2,210.1,1222.2,214.1z"/>
	</g>
</svg>
