<?xml version="1.0" encoding="utf-8"?>
<svg version="1.1" id="bloodySunday" xmlns="http://www.w3.org/2000/svg" xmlns:xlink="http://www.w3.org/1999/xlink" x="0px" y="0px" viewBox="0 0 2200 1550" enable-background="new 0 0 2200 1550" xml:space="preserve">
  <g class="calendar">
  	<rect class="calendar-page" x="32" y="464" width="617.2" height="622"/>
  	<rect class="calendar-bar" x="32" y="464" width="617.2" height="151.6"/>
  	<g class="calendar-sunday">
  		<path d="M94,913.7v-27.5c9.3,5.4,16.7,8.4,23.8,8.4c7.6,0,14.1-3.7,14.1-13v-0.4c0-6.9-2.2-12.1-14.7-26.4 c-18-20.4-25.4-30.1-25.4-48.5v-0.4c0-24.3,15.8-39.7,36.8-39.7c10.6,0,16.9,1.5,23.4,4.8v27.5c-8.2-4.8-13.2-6.9-20.2-6.9 c-7.4,0-13.7,4.8-13.7,13v0.4c0,7.2,2.2,9.8,14.7,24.3c20.8,24.1,25.4,33.4,25.4,50.7v0.4c0,23.8-16.7,39.7-37.5,39.7 C110.5,920,101.6,917.4,94,913.7z"/>
  		<path d="M167.3,874.7V767.2h26.2v110.1c0,13.7,4.8,19.1,11.5,19.1c6.7,0,11.5-5.4,11.5-19.1V767.2h26.2v107.5 c0,31.9-16,46.2-37.7,46.2S167.3,906.5,167.3,874.7z"/>
  		<path d="M257.8,767.2h24.7l26.7,76.7v-76.7H335v151.7h-23.4l-28-80.4v80.4h-25.8V767.2z"/>
  		<path d="M350.6,767.2h24.7c33.8,0,53.1,24.5,53.1,73.2v5.2c0,48.8-19.3,73.2-53.1,73.2h-24.7V767.2z M378.1,894.6 c12.6,0,23.4-11.1,23.4-49v-5.2c0-37.9-10.8-49-23.4-49H377v103.1H378.1z"/>
  		<path d="M460.4,766.8h28.2l28.8,152.1H491l-5-30.1h-24.1l-4.8,30.1h-25.6L460.4,766.8z M482.1,864.9l-8-50.1l-8.2,50.1H482.1z"/>
  		<path d="M537.1,859.1L509,767.2h27.3l14.3,56.8l14.5-56.8h26.7l-28.2,91.9v59.8h-26.4V859.1z"/>
  	</g>
  </g>
  <polygon class="bolt" points="1272.2,981.8 1274.6,677.5 1205.5,744.4 1219.4,462.7 1170,488.9 1120.6,462.7 1120.6,892.9 1202.1,814.3 1202.1,981.6 1153.5,973.7 1237.7,1087.3 1322,973.7 "/>
  <g class="drink">
  	<polygon class="drink-glass" points="1837.3,1085.8 1767.7,464 2153,464 2083.4,1086"/>
  	<g class="drink-straws">
  		<polygon points="1951.2,949.4 1935.5,951.5 1807.4,307.7 1823,305.6"/>
  		<polygon points="1976.3,983.5 1960.5,984.6 1895.3,334.3 1911.1,333.2"/>
  	</g>
  	<polygon class="drink-liquid" points="1846.2,1078 1786.9,546 2133.8,546 2075.5,1078.3"/>
  </g>
  <g class="plus-signs">
    <path d="M863.1,797.9h-48v-48.4h48v-51.8h46.7v51.8h48v48.4h-48v51.8h-46.7V797.9z"/>
  	<path d="M1513.3,800.6h-48v-48.4h48v-51.8h46.7v51.8h48v48.4h-48v51.8h-46.7V800.6z"/>
  </g>
</svg>
