<?xml version="1.0" encoding="utf-8"?>
<svg version="1.1" id="btLive" xmlns="http://www.w3.org/2000/svg" xmlns:xlink="http://www.w3.org/1999/xlink" x="0px" y="0px" viewBox="0 0 2200 1550" enable-background="new 0 0 2200 1550" xml:space="preserve">
	<g class="kenneth-branagh-theatre-company">
		<g class="kenneth-branagh">
			<path d="M61.3,254.3v67.5l29.8-67.5h26.5l-29.1,58.6l32.9,109.9h-27l-21.5-78.3l-11.6,23.2v55.1H36V254.3H61.3z"/>
			<path d="M208.1,277.8h-43.5v46H196v23.5h-31.3v52.1h43.5v23.5h-68.7V254.3h68.7V277.8z"/>
			<path d="M287.4,422.8l-36.6-104.1v104.1h-23.5V254.3h25.5l34.6,100.1V254.3h23.5v168.6H287.4z"/>
			<path d="M393.6,422.8l-36.6-104.1v104.1h-23.5V254.3H359l34.6,100.1V254.3h23.5v168.6H393.6z"/>
			<path d="M508.3,277.8h-43.5v46h31.3v23.5h-31.3v52.1h43.5v23.5h-68.7V254.3h68.7V277.8z"/>
			<path d="M575.5,422.8h-25.3V277.8h-26.8v-23.5h79.4v23.5h-27.3V422.8z"/>
			<path d="M645,346.8v76.1h-25.3V254.3H645v69h28.1v-69h25.3v168.6h-25.3v-76.1H645z"/>
			<path d="M765.6,254.3h35.1c27.8,0,42,14.7,42,43.7c0,17.7-5.1,28.8-17.7,37.7c14.7,7.3,20.7,19.7,20.7,42c0,16.9-4,29.1-12.4,36.9
				c-6.8,6.3-13.9,8.3-30.3,8.3h-37.4V254.3z M796.2,324c7.8,0,11.4-1,14.9-4.3c4.5-4.3,6.8-11.1,6.8-20.7c0-14.4-5.6-21.2-17.4-21.2
				h-9.6V324H796.2z M800.2,399.3c14.2,0,20.2-7.1,20.2-24.5c0-10.9-2.8-19.2-8.1-23.5c-3.3-2.8-7.3-3.8-15.2-3.8h-6.3v51.8H800.2z"
				/>
			<path d="M892.2,422.8h-25.3V254.3h35.4c29.3,0,42.2,15.2,42.2,48.8c0,21.7-4.5,33.4-16.9,42.5l19.5,77.3h-26.8l-15.9-70.5h-12.1
				V422.8z M900.3,328.8c8.6,0,11.9-1.3,14.7-5.3c2.5-4,4.3-11.6,4.3-20.2c0-9.1-1.8-17.2-5.1-21c-2.5-3.5-5.8-4.5-13.9-4.5h-8.1v51
				H900.3z"/>
			<path d="M995,385.7l-5.8,37.1h-25l27.5-168.6h32.9l29.3,168.6h-26l-5.8-37.1H995z M1008.2,295l-9.6,67.2h19.7L1008.2,295z"/>
			<path d="M1131.2,422.8l-36.6-104.1v104.1h-23.5V254.3h25.5l34.6,100.1V254.3h23.5v168.6H1131.2z"/>
			<path d="M1205,385.7l-5.8,37.1h-25l27.5-168.6h32.9l29.3,168.6h-26l-5.8-37.1H1205z M1218.2,295l-9.6,67.2h19.7L1218.2,295z"/>
			<path d="M1358.7,422.8h-12.4l-4.8-13.4c-7.1,11.6-14.2,15.9-26.5,15.9c-12.1,0-22.2-5.3-27.8-14.4c-5.6-9.6-7.6-21-7.6-42v-58.9
				c0-26.3,1.8-34.9,10.1-45c6.8-8.6,17.7-13.4,29.6-13.4c18.7,0,33.1,10.9,37.7,28.6c1.5,6.1,1.8,8.8,1.8,29.1h-25.5
				c0-10.1-0.3-16.7-0.5-20.5c-1-8.1-6.3-13.4-13.6-13.4c-6.3,0-11.1,4-12.9,11.1c-0.8,3-1.3,11.9-1.3,25.3v53.3
				c0,12.6,0.8,23.5,1.8,26.8c1.8,6.1,6.6,9.6,12.6,9.6c6.3,0,11.4-4,12.9-10.9c0.8-3.5,1.3-11.6,1.3-25.5v-6.8H1318v-21h40.7V422.8z
				"/>
			<path d="M1406.7,346.8v76.1h-25.3V254.3h25.3v69h28.1v-69h25.3v168.6h-25.3v-76.1H1406.7z"/>
		</g>
		<g class="theatre">
			<path d="M142.9,1068.4c0-19.7-0.5-34.8-1-42.8c-2-16.1-12.6-26.7-27.2-26.7c-13.1,0-22.2,8.1-25.7,22.2
				c-1.5,6.6-2.5,22.7-2.5,50.9v106.9c0,32.3,1,46.4,3.5,53.4c4,12.1,13.1,19.2,24.7,19.2c14.6,0,25.2-11.1,26.7-28.2
				c1-9.1,1.5-33.8,1.5-48.9h50.9v19.2c0,34.8-2,47.9-11.6,65.5c-12.6,24.7-37.3,39.3-67,39.3c-23.7,0-45.4-9.6-59-26.7
				c-16.6-20.2-20.2-36.8-20.2-89.2v-113.9c0-52.9,3.5-69.6,20.2-89.7c13.6-17.1,35.3-26.7,59-26.7c29.2,0,54.4,13.6,67,36.8
				c9.1,16.6,11.6,28.7,11.6,61.5v18.1H142.9z"/>
			<path d="M391.4,1183.8c0,49.9-4,68.1-20.2,87.7c-13.6,16.6-35.3,26.7-58.5,26.7c-23.7,0-45.4-10.1-59-26.7
				c-16.1-19.7-20.2-38.3-20.2-87.7v-117.5c0-49.4,4-68.1,20.2-87.7c13.6-16.6,35.3-26.7,59-26.7c23.2,0,45.4,10.1,58.5,26.7
				c16.1,19.7,20.2,37.8,20.2,87.7V1183.8z M284,1178.3c0,31.8,1,46.9,3.5,53.9c4,12.1,13.1,19.2,25.2,19.2
				c12.6,0,22.2-8.1,25.7-22.2c1.5-6.6,2.5-22.7,2.5-50.9v-106.4c0-32.8-1-46.9-3.5-53.9c-4-12.1-13.1-19.2-24.7-19.2
				c-13.1,0-22.7,8.1-26.2,22.2c-1.5,6.6-2.5,23.7-2.5,50.9V1178.3z"/>
			<path d="M604.1,1293.2v-232.4l-48.4,232.4H533l-50.9-232.4v232.4h-46.9V957h67.5l41.8,204.7L582.9,957H651v336.2H604.1z"/>
			<path d="M746.2,1293.2h-50.4V957h70.6c64.5,0,87.2,25.7,87.2,98.3c0,73.1-22.7,98.8-87.2,98.8h-20.2V1293.2z M762.4,1107.2
				c32.8,0,40.8-10.6,40.8-51.9c0-40.8-8.1-51.4-40.8-51.4h-16.1v103.3H762.4z"/>
			<path d="M932.8,1219.1l-11.6,74.1h-49.9L926.2,957h65.5l58.5,336.2h-51.9l-11.6-74.1H932.8z M959,1038.2l-19.2,134.1h39.3
				L959,1038.2z"/>
			<path d="M1204.5,1293.2l-73.1-207.7v207.7h-46.9V957h50.9l69.1,199.6V957h46.9v336.2H1204.5z"/>
			<path d="M1399.5,1293.2h-50.4v-136.1l-63-200.1h52.4l35.8,132.1l34.8-132.1h50.9l-60.5,200.1V1293.2z"/>
		</g>
		<g class="company">
			<path d="M151.9,868.7H95.6V545.9H36v-52.3h176.6v52.3h-60.7V868.7z"/>
			<path d="M306.5,699.5v169.3h-56.2V493.6h56.2v153.5h62.4V493.6h56.2v375.1h-56.2V699.5H306.5z"/>
			<path d="M628.2,545.9h-96.7v102.4h69.7v52.3h-69.7v115.9h96.7v52.3h-153V493.6h153V545.9z"/>
			<path d="M736.2,786.1l-12.9,82.7h-55.7l61.3-375.1H802l65.2,375.1h-57.9l-12.9-82.7H736.2z M765.4,584.2l-21.4,149.6h43.9
				L765.4,584.2z"/>
			<path d="M987,868.7h-56.2V545.9h-59.6v-52.3h176.6v52.3H987V868.7z"/>
			<path d="M1141.7,868.7h-56.2V493.6h78.7c65.2,0,93.9,33.7,93.9,108.5c0,48.4-10.1,74.2-37.7,94.5l43.3,172.1h-59.6l-35.4-156.9
				h-27V868.7z M1159.7,659.5c19.1,0,26.4-2.8,32.6-11.8c5.6-9,9.6-25.9,9.6-45c0-20.2-3.9-38.2-11.2-46.7
				c-5.6-7.9-12.9-10.1-30.9-10.1h-18v113.6H1159.7z"/>
			<path d="M1460,545.9h-96.7v102.4h69.7v52.3h-69.7v115.9h96.7v52.3h-153V493.6h153V545.9z"/>
		</g>
	</g>
	<g class="live">
		<path d="M2164,1060v233.2h-584.8v-87.7h503.3V1060H2164z"/>
		<path d="M2164,921.5v87.7h-584.8v-87.7H2164z"/>
		<path d="M2164,747l-584.8,112.2v-89.4l374.4-67.5l-374.4-59.6v-86.8l584.8,100V747z"/>
		<path d="M1660.7,254.3v150.8h159.6V296.4h81.5v108.7h180.6V254.3h81.5v238.5h-584.8V254.3H1660.7z"/>
	</g>
</svg>
