<?xml version="1.0" encoding="utf-8"?>
<svg version="1.1" id="mrKolpert" xmlns="http://www.w3.org/2000/svg" xmlns:xlink="http://www.w3.org/1999/xlink" x="0px" y="0px" viewBox="0 0 2200 1550" enable-background="new 0 0 2200 1550" xml:space="preserve">
  <path class="man" d="M943.3,181.5c-0.5-3.2,1.2-6.5,1.8-8.5c0,0,0,0,0,0c1.4-6,1-11-0.7-16.1c-0.3-1-0.5-3.1-2.3-2.6
  	c-1.8,0.5-1.9,2.1-1.5,3.6c0.6,2.2,0.8,4.3-0.3,6.5c-2.4,5.1-6.9,7.3-11.7,9.2c-3.2,1.3-6.4,1.6-9.8,1.8c-5.7-0.1-11.7,0.1-16.7,0.5
  	v0c-10-0.2-17.3,0.3-25.9-0.9c-3-0.4-6.1,1.4-8.5,3.4c-1.1,0.5-2.4,0.7-3.1,1.7c-5.4,1.5-10.6,3.5-15.6,6.1
  	c-1.1,0.5-2.1,0.8-3.3,0.7c-3.2-1.1-6.4-1.9-9.7-2.6c-4.5-1-8-4.2-12-6.2c-5.4-4.6-11-8.9-17.2-12.3c0.1-0.5,0.1-0.9,0.2-1.4
  	c1.7-1.9,3.2-4,3.8-6.6c2.6-5,6.5-9.7,4.7-16c0.8-5.6,0.4-11.4,1.4-17c0.4-2.2-1.1-2.5-2.5-2.7l-1.3,0.1c0,0,0,0,0,0l0.1,0
  	c-0.3-0.7-0.6-1.5-0.9-2.2c-0.4-0.8-0.9-1.6-0.8-2.6c0.2-2.2-0.6-4.2-1.8-6.1c-0.8-1.2-1.3-2.4-1.6-3.8c-0.2-1.4-0.8-2.6-1.5-3.7
  	c-0.2-0.4-0.6-0.7-1-0.5c-0.5,0.2-0.4,0.7-0.1,1.1c0.7,1.3,0.9,2.7,1.2,4.2c0,0.2,0.3,0.5-0.1,0.6c-0.3,0.1-0.4-0.2-0.5-0.4
  	c-0.3-0.7-0.6-1.4-0.9-2c-0.6-1.3-1.3-2.6-2.1-3.8c-0.3-0.4-0.7-0.7-1.2-0.4c-0.4,0.3-0.3,0.7,0,1.1c1.1,1.6,1.5,3.5,2.4,5.4
  	c-0.6-0.2-0.6-0.6-0.8-0.9c-0.8-1.5-1.7-3-2.5-4.5c-0.2-0.4-0.6-0.7-1-0.5c-0.4,0.2-0.6,0.5-0.4,1c0.2,0.4,0.3,0.9,0.5,1.3
  	c0.6,1.4,1.3,2.8,2.1,4.2c0.1,0.1,0.3,0.3,0.1,0.4c-0.2,0.1-0.3-0.1-0.3-0.2c-0.4-0.6-0.8-1.1-1.2-1.7c-0.5-1-1-1.9-1.6-2.8
  	c-0.2-0.4-0.5-0.5-0.8-0.3c-0.3,0.1-0.5,0.4-0.5,0.8c0.1,0.5,0.2,0.9,0.4,1.3c0.6,1.7,1.5,3.3,2.5,4.9c0.4,0.7,1,1.4,0.9,2.3
  	c0,0.3-0.1,0.6-0.4,0.4c-0.6-0.4-1.3-0.4-1.8-1.1c-0.6-0.8-1.5-1.3-2.4-1.5c-0.6-0.1-1,0.3-0.7,0.7c0.6,0.7,0.9,1.7,1.6,2.3
  	c1.7,1.5,3.4,3.1,5.5,3.9c0.5,0.2,1.1,0.5,1.6,0.9c0.9,0.8,1.3,2,1.6,3h0l0.1,0c0,0,0,0,0,0l-0.3,0l-0.2,0v0l-1.8,0.2l-0.2,0l-0.4,0
  	c-0.5,0.2-0.6,0.7-0.5,1.4c0.3,3.2,0.5,6.4,0.8,9.6c-0.1,2.6-1.3,5.1,0,7.7c0.7,6.2-5.1,8.3-7.9,12.3c-0.6,0.9-1.9,1.4-1.5,2.8
  	c-0.1,0-0.2,0.1-0.3,0.2c-1.9-2.8-2.7-5.8-1.1-9c0.6-1.2-0.7-1.5-1.4-2c-1.6-1.1-3.7-1.3-4.7-3.3c1.2-1.5-0.3-1.9-1.1-2.6
  	c-1-0.9-2.1-1.7-3.2-2.6v0c0.3-3.5-1.1-5.1-4.4-4.4c-2.6,0.6-5.5,0.7-7.7,2.7c-0.2,1-1.1,0.9-1.8,1.3c-4.7,1.8-7.6,6.9-6.2,11
  	c0.1,2.4,0.2,4.8,1.7,6.8c0.8,2.4,2.5,4.1,4.3,5.7c1.5,1.2,3.4,2.1,1.1,4.4c-0.5,0.5-0.2,1.3,0.1,1.9c1.4,0.7,2,1.7,2,3
  	c0,0,0,0.1,0,0.1c0,0.4,0.1,0.9,0,1.3l0,0c0,0,0,0.3,0,0.2c0,0,0,0.3,0,0.3h0c0,0,0.1-0.2,0-0.2c0,0,0-0.2-0.1-0.2l-0.1-0.1
  	c-0.1,0-0.2,0.1-0.4,0.1c0,0,0,0-0.1,0.1c-1.4,3.1-2.3,6.4-5.1,8.7c-0.9,0.7-1.8,1.8-1.7,3.2c-0.6,0.9-0.8,1.9-0.5,2.9
  	c-0.4,2.9,1.4,5.5,0.8,8.4c-0.6,0.5-1.3,1.1-1.3,2c0,4-2.6,7.4-2.5,11.4c-0.1,0.3-0.3,0.6-0.4,1c-2.1,4.2-3.4,8.7-4.2,13.3
  	c-0.6,1.5-1.5,3-1.4,4.7c-0.3,0.6-0.6,1.3-0.9,1.9c-1,4-1.9,8.1-2.9,12.1c-0.6,0.9-1,1.9-0.6,3c-0.3,0.6-0.6,1.2-0.8,1.8
  	c-0.7,1.1-1.5,2.1-2.2,3.2c-1.6,1.1-2.8,2.4-3.7,4.2c-0.6,1-2.4,1.6-0.9,3.1c1.2,1.5,2.1-0.3,3.1-0.3c2.3-0.7,2.3-4.2,5.2-4.1
  	c-0.2,0.7-1.7,1.3-0.6,2.2c0.8,0.6,1.4-0.5,1.8-1.1c0.8-1.3,1.8-2.3,3.4-2.6c1.1,0.7,2.2,0.9,3.5,0.5c0.7,0.7,1.4,1.9,2.5,1.5
  	c0.9-0.3,0.6-1.5,0.5-2.4c0.4-0.6,0.7-1.1,1.1-1.7c1.3-1.2,0.8-2.8,1.1-4.2c2.3-12.8,7.3-24.6,12-36.6c1.8-4.5,2-4.4,6.4-2.9
  	c2.6,1.5,5.1,2.9,7.7,4.4c2.2,2.4,3.6,5.2,4.6,8.3c1.8,5.3,4.6,10.2,6.8,15.3c0.2,0.6,0.9,0.9,1.4,1.4c2.3,5.1,5.2,9.8,8.3,14.3
  	c0.1,0.2,0.2,0.4,0.4,0.6c1.3,1,1.9,2.5,2.6,4c2,4.7,2,4.7,6.7,3c1.7-0.6,3.4-1.4,5.1-2c6.2-2.2,7.6-4.6,6.3-11.2
  	c0.4-1.8-0.4-3.3-0.8-5c-0.8-3.8,0.9-5.8,4.6-5.5c1.2,0.1,2.5-0.2,3.7-0.4c2.5,0.5,5.1,1,7.6,1.5c4.9,3,9.9,5.8,15.3,7.7
  	c1.9,0.7,3.3,2,3.9,4c-0.2,3,1.6,5.3,2.9,7.8c0.2,0.4,0.3,0.8,0.5,1.3c0.2,1.2,0.5,2.5,1.5,3.3c3.3,8.8,7.5,17.1,12,25.4
  	c2.6,4.7,4.1,9.9,4.8,14.9c0.5,4.1,1.4,7.5,3.9,10.7c0.1,0.1,0.1,0.2,0.2,0.2h12.6c-1.8-1-3.8-0.5-5.5-0.6c3-5.5,9.5-6.2,14.2-9.6
  	c4-2.8,7.4-6.1,10.3-9.9c0.5-0.7,1.5-1.5,0.9-2.4c-0.7-1-2-1-3.2-0.5c-2.1,0.8-3.6,2.5-5.2,3.9c-0.7,0.6-1.5,1-2.3,1.4
  	c-1.8-0.1-3.5-0.3-5.3-0.4c-1.6,0.1-3-0.7-4.4-1.3c-1.2-0.5-0.2-0.9,0.2-1.4c1.1,0,1.4-0.7,0.9-1.6c-1.8-3.4-3.8-6.7-5.7-10
  	c0.1-0.2,0-0.4-0.2-0.5c-0.2-1.2-0.6-2.3-1.6-3.2c-0.3-1.2-0.6-2.4-1.6-3.3c-3.7-8-8-15.8-9.6-24.6c-1.7-9.6-8-16-14.5-22.3
  	c-2.5-3.3-5.7-6-8.7-8.7c-2.7-2.4-2.8-4.1,0.3-5.9c1.1-0.4,2-1.2,2.8-2.1c0.7-0.5,1.6-1,2.2-1.6c3.8-4.6,8.9-6.5,14.5-7.6
  	c0.2-0.1,0.4-0.1,0.7-0.2c13.5-1.2,27-2.4,40.6-3.6c2.4,0.2,4.7,0.4,7.1,0.6c1.2,0.1,2.2,0.1,2.1-1.7c-0.1-1,1.1-0.2,1.6-0.5
  	c2,1.2,4.3-0.4,6.3,0.5c0.1,0,0.2,0,0.3,0c2.1-1.9,1.7-4.6,1.8-7C944.8,183.4,946,181.7,943.3,181.5z"/>
  <polygon class="cliff" points="2164,637.8 883.6,312 883.6,307.2 2164,307.2 "/>
  <path class="head" d="M838,947.1c-6.4-4-12.9-8.5-19.1-13.4c-2-1.7-4.1-3.4-6-5.1c-2.9-2.6-5.7-5.4-8.3-8.3c-1.1-1.2-2.1-2.4-3.1-3.6
  	c-3-3.7-5.7-7.6-7.8-11.6c-22.3-41.3-26.8-51-55.4-51.6c-0.9,0-1.9,0-2.8,0c-2.7,0-5.7,0.1-8.8,0.2c-7,0.3-15.1,0.8-24.7,1.4
  	c-3.7,0.2-7.4,0.4-11.1,0.4c-1.2,0-2.4,0-3.6,0c-46.9-0.1-88.5-15.6-117.7-57.2c-5.3-7.6-9.5-19.7-7.4-27.9
  	c4.9-18.9,14-36.8,22.1-56.8c-5.6-4.2-15.9-7.9-17-13.3c-8.8-43.4-41.8-40.3-74.1-42c-23.7-1.3-33.4-17.9-32.5-40.1
  	c0.5-13.4,4.8-26.7,6.1-40.2c4.4-44.2-6-64.8-39.9-65c-6.3,0-13.4,0.7-21.3,2c-48.2,8.3-96,23-141.6,40.8
  	c-17.2,6.7-33.2,10.7-48.4,10.6c-19.6-0.2-37.9-7.2-55.9-23.8c-20.8-19.2-44.5-26.3-70-26.1c-10,0.1-20.2,1.2-30.6,3.2
  	c-5.3,1-10.6,2-15.9,3.1V1447h741.1c0,0,0,0,0.1,1h0.1c0-1,0-0.7-0.1-0.9c-1-8.4-1.6-16.9-1.5-25.2c0-2.8,0.1-5.6,0.3-8.4
  	c0.4-5.3,0.5-10.5,0.5-15.6c-0.1-27.4-6.2-52-20.3-76.1c-33.1-56.3-27.9-84.6,18.5-130.5c37.8-37.4,74.9-75.7,109-116.5
  	c11-13.1,15.7-35.2,15.5-53.1C905.5,978.6,868.4,966,838,947.1z"/>
  <path class="banana" d="M1032.7,204.9c0.1-0.7,0-1.4,0-2.1c0-0.2-0.2-0.4-0.4-0.5c-0.1,0-0.4,0.1-0.5,0.2c-0.2,0.3-0.4,0.6-0.5,0.9
  	c-0.8,1.7-1.8,3.2-3.2,4.5c-0.5,0.5-1,0.8-1.8,0.9c-1.7,0.3-3.1,1.1-3.9,2.7c-0.3,0.7-0.9,0.9-1.5,1c-0.2,0-0.4,0-0.4-0.3
  	c-0.2-0.8-0.4-1.5-0.6-2.3c-0.4-1.8-1.4-3-3.1-3.6c-0.1,0-0.3-0.2-0.4-0.4c-0.5-1.1-1.1-2.1-2.1-2.9c-0.6-0.5-1-0.5-1.5,0.2
  	c-0.6,0.9-0.5,1.2,0.4,1.6c0.7,0.4,1.3,0.9,1.7,1.6c0.2,0.3,0.2,0.5-0.1,0.7c-1.3,1.2-1.9,2.8-1.8,4.7c0.1,0.7,0.1,1.3,0.2,2
  	c0,0.2,0,0.4-0.1,0.5c-0.3,0.4-0.8,0.8-1.3,1c-0.9,0.3-1.7,0.3-2.6,0.1c-1.6-0.5-2.8-1.4-3.3-3c-0.1-0.3-0.2-0.6-0.3-0.8
  	c-0.2-0.4-0.4-0.4-0.6-0.1c-0.1,0.1-0.1,0.2-0.2,0.3c-0.6,1.5-0.5,3.1,0.2,4.6c0.3,0.7,0.9,1.3,1.6,1.7c-1.3,1.2-2,2.7-2.5,4.3
  	c-0.5,1.4-1.2,2.6-2.5,3.2c-0.3,0.2-0.3,0.5,0,0.6c0.3,0.1,0.7,0.2,1,0.1c0.9-0.1,1.8-0.5,2.4-1.2c0.8-0.8,1.6-1.7,2.4-2.6
  	c1.3-1.5,2.9-2.4,4.8-2.7c0.7-0.1,1.5-0.3,2.2-0.5c0.7-0.2,1.3-0.5,1.6-1.3c0.3-0.7,0.6-1.3,1-2c0.8,0.8,1.7,1.2,2.7,1
  	c0.9-0.2,1.7-0.4,2.4-1c1-0.7,1.9-1.5,2.8-2.2c1.1-0.9,2.2-1.9,3.6-2.3c1.6-0.5,3.2-0.9,4.8-1.4c0.6-0.2,1.1-0.4,1.6-0.7
  	c0.1-0.1,0.2-0.4,0.3-0.6c-0.2-0.1-0.4-0.2-0.5-0.2c-0.3,0-0.7,0.1-1,0.1c-1,0.1-1.9,0.1-2.9-0.1
  	C1031.9,207.7,1032.5,206.4,1032.7,204.9z"/>
</svg>
