<?xml version="1.0" encoding="utf-8"?>
<svg version="1.1" id="ntLive" xmlns="http://www.w3.org/2000/svg" xmlns:xlink="http://www.w3.org/1999/xlink" x="0px" y="0px" viewBox="0 0 2200 1550" enable-background="new 0 0 2200 1550" xml:space="preserve">
  <g>
  	<g class="national">
  		<path d="M75.3,109.7h93.3l169.1,297v-297h82.9v426h-89L158.2,233.5v302.2H75.3V109.7z"/>
  		<path d="M598.6,344.1c15.3-1.9,26.3-4.3,32.9-7.2c11.8-5,17.8-12.8,17.8-23.4c0-12.9-4.5-21.8-13.6-26.7c-9.1-4.9-22.4-7.4-40-7.4
  			c-19.7,0-33.7,4.8-41.9,14.4c-5.9,7.1-9.8,16.8-11.7,28.9h-79.5c1.7-27.5,9.5-50.2,23.2-67.9c21.9-27.7,59.4-41.6,112.6-41.6
  			c34.6,0,65.4,6.8,92.3,20.5c26.9,13.7,40.3,39.5,40.3,77.4v144.5c0,10,0.2,22.2,0.6,36.4c0.6,10.8,2.2,18.1,4.9,22
  			c2.7,3.9,6.7,7,12.1,9.5v12.1h-89.6c-2.5-6.4-4.2-12.3-5.2-17.9c-1-5.6-1.7-11.9-2.3-19.1C640.1,511,627,521.5,612,530.2
  			c-17.8,10.2-38,15.3-60.5,15.3c-28.7,0-52.4-8.1-71.1-24.4c-18.7-16.3-28-39.3-28-69.2c0-38.7,15-66.8,45.1-84.1
  			c16.5-9.4,40.8-16.2,72.8-20.2L598.6,344.1z M649,382.5c-5.3,3.3-10.6,5.9-16,7.9c-5.4,2-12.7,3.9-22.1,5.6l-18.7,3.5
  			c-17.6,3.1-30.2,6.8-37.9,11.3c-13,7.5-19.5,19.2-19.5,35c0,14.1,4,24.2,11.9,30.5c7.9,6.3,17.6,9.4,28.9,9.4
  			c18,0,34.6-5.2,49.7-15.6c15.2-10.4,23-29.4,23.6-56.9V382.5z"/>
  		<path d="M747,282.3v-58.7h43.9v-87.9h81.5v87.9h51.2v58.7h-51.2v166.5c0,12.9,1.6,21,4.9,24.1c3.3,3.2,13.3,4.8,30.1,4.8
  			c2.5,0,5.2,0,7.9-0.1c2.8-0.1,5.5-0.2,8.2-0.4v61.6l-39,1.4c-38.9,1.3-65.5-5.4-79.8-20.2c-9.2-9.4-13.9-24-13.9-43.6V282.3H747z"
  			/>
  		<path d="M1037.4,183.1h-83.5v-76h83.5V183.1z M953.9,220.7h83.5v315h-83.5V220.7z"/>
  		<path d="M1356.2,497.2c-26.6,32.8-67,49.2-121.1,49.2c-54.1,0-94.5-16.4-121.1-49.2c-26.6-32.8-39.9-72.3-39.9-118.5
  			c0-45.4,13.3-84.8,39.9-118.1s66.9-50,121.1-50c54.1,0,94.5,16.7,121.1,50s39.9,72.7,39.9,118.1
  			C1396.1,424.8,1382.8,464.3,1356.2,497.2z M1290.3,451.6c12.9-17.1,19.4-41.5,19.4-73c0-31.5-6.5-55.8-19.4-72.9
  			c-12.9-17-31.4-25.5-55.5-25.5c-24.1,0-42.6,8.5-55.6,25.5c-13,17-19.5,41.3-19.5,72.9c0,31.6,6.5,55.9,19.5,73
  			c13,17.1,31.5,25.7,55.6,25.7C1258.9,477.3,1277.4,468.8,1290.3,451.6z"/>
  		<path d="M1685.4,238.8c20.6,17.1,30.9,45.3,30.9,84.8v212.1h-84.4V344.1c0-16.6-2.2-29.3-6.6-38.1c-8-16.2-23.3-24.3-45.9-24.3
  			c-27.7,0-46.8,11.8-57.1,35.5c-5.4,12.5-8,28.5-8,48v170.5h-82.4V221.3h79.8v45.9c10.5-16.2,20.5-27.8,29.9-35
  			c16.9-12.7,38.3-19.1,64.2-19.1C1638.2,213.2,1664.7,221.7,1685.4,238.8z"/>
  		<path d="M1894,344.1c15.3-1.9,26.3-4.3,32.9-7.2c11.8-5,17.8-12.8,17.8-23.4c0-12.9-4.5-21.8-13.6-26.7c-9.1-4.9-22.4-7.4-40-7.4
  			c-19.7,0-33.7,4.8-41.9,14.4c-5.9,7.1-9.8,16.8-11.7,28.9h-79.5c1.7-27.5,9.5-50.2,23.2-67.9c21.9-27.7,59.4-41.6,112.6-41.6
  			c34.6,0,65.4,6.8,92.3,20.5c26.9,13.7,40.3,39.5,40.3,77.4v144.5c0,10,0.2,22.2,0.6,36.4c0.6,10.8,2.2,18.1,4.9,22
  			c2.7,3.9,6.7,7,12.1,9.5v12.1h-89.6c-2.5-6.4-4.2-12.3-5.2-17.9c-1-5.6-1.7-11.9-2.3-19.1c-11.4,12.3-24.6,22.8-39.5,31.5
  			c-17.8,10.2-38,15.3-60.5,15.3c-28.7,0-52.4-8.1-71.1-24.4c-18.7-16.3-28-39.3-28-69.2c0-38.7,15-66.8,45.1-84.1
  			c16.5-9.4,40.8-16.2,72.8-20.2L1894,344.1z M1944.3,382.5c-5.3,3.3-10.6,5.9-16,7.9c-5.4,2-12.7,3.9-22.1,5.6l-18.8,3.5
  			c-17.6,3.1-30.2,6.8-37.9,11.3c-13,7.5-19.5,19.2-19.5,35c0,14.1,4,24.2,11.9,30.5c7.9,6.3,17.6,9.4,28.9,9.4
  			c18,0,34.6-5.2,49.7-15.6c15.2-10.4,23-29.4,23.6-56.9V382.5z"/>
  		<path d="M2158.8,535.7h-82.4v-426h82.4V535.7z"/>
  	</g>
  	<g class="theatre">
  		<path d="M386.3,558v75.4H258.8v350.5h-89.6V633.4h-128V558H386.3z"/>
  		<path d="M634.3,670.7c15.8,6.8,28.8,17.1,39,30.9c8.6,11.8,13.9,23.9,15.8,36.3c1.9,12.4,2.9,32.7,2.9,60.9v185.1h-84.1V792.1
  			c0-17-2.9-30.7-8.6-41.1c-7.5-14.7-21.6-22-42.5-22c-21.6,0-38,7.3-49.2,21.8c-11.2,14.6-16.8,35.3-16.8,62.3v170.7h-82.4V559.4
  			h82.4v150.3c11.9-18.3,25.7-31.1,41.3-38.3c15.6-7.2,32.1-10.8,49.3-10.8C600.9,660.6,618.5,663.9,634.3,670.7z"/>
  		<path d="M951.1,675.3c22,9.8,40.1,25.4,54.4,46.6c12.9,18.7,21.3,40.4,25.1,65.1c2.2,14.5,3.1,35.3,2.7,62.5H803.9
  			c1.3,31.6,12.3,53.8,32.9,66.5c12.6,7.9,27.7,11.8,45.4,11.8c18.8,0,34-4.8,45.7-14.4c6.4-5.2,12-12.4,17-21.7h84.1
  			c-2.2,18.7-12.4,37.7-30.5,56.9c-28.2,30.6-67.7,45.9-118.5,45.9c-41.9,0-78.9-12.9-111-38.8C737,930,721,888,721,829.8
  			c0-54.6,14.5-96.4,43.4-125.5c28.9-29.1,66.5-43.7,112.6-43.7C904.4,660.6,929.1,665.5,951.1,675.3z M827.9,746.5
  			c-11.6,12-19,28.2-21.9,48.8h141.9c-1.5-21.9-8.8-38.5-21.9-49.8c-13.1-11.3-29.4-17-48.9-17C855.9,728.5,839.5,734.5,827.9,746.5
  			z"/>
  		<path d="M1176.1,792.3c15.3-1.9,26.3-4.3,32.9-7.2c11.8-5,17.8-12.8,17.8-23.4c0-12.9-4.5-21.8-13.6-26.7
  			c-9.1-4.9-22.4-7.4-40-7.4c-19.7,0-33.7,4.8-41.9,14.4c-5.9,7.1-9.8,16.8-11.7,28.9H1040c1.7-27.5,9.5-50.2,23.2-67.9
  			c21.9-27.7,59.4-41.6,112.6-41.6c34.6,0,65.4,6.8,92.3,20.5c26.9,13.7,40.3,39.5,40.3,77.4v144.5c0,10,0.2,22.2,0.6,36.4
  			c0.6,10.8,2.2,18.1,4.9,22c2.7,3.9,6.7,7,12.1,9.5v12.1h-89.6c-2.5-6.4-4.2-12.3-5.2-17.9c-1-5.6-1.7-11.9-2.3-19.1
  			c-11.4,12.3-24.6,22.8-39.5,31.5c-17.8,10.2-38,15.3-60.5,15.3c-28.7,0-52.4-8.1-71.1-24.4c-18.7-16.3-28-39.3-28-69.2
  			c0-38.7,15-66.8,45.1-84.1c16.5-9.4,40.8-16.2,72.8-20.2L1176.1,792.3z M1226.4,830.8c-5.3,3.3-10.6,5.9-16,7.9
  			c-5.4,2-12.7,3.9-22.1,5.6l-18.8,3.5c-17.6,3.1-30.2,6.8-37.9,11.3c-13,7.5-19.5,19.2-19.5,35c0,14.1,4,24.2,11.9,30.5
  			c7.9,6.3,17.6,9.4,28.9,9.4c18,0,34.6-5.2,49.7-15.6c15.2-10.4,23-29.4,23.6-56.9V830.8z"/>
  		<path d="M1324.4,730.5v-58.7h43.9V584h81.5v87.9h51.2v58.7h-51.2V897c0,12.9,1.6,21,4.9,24.1c3.3,3.2,13.3,4.8,30.1,4.8
  			c2.5,0,5.2,0,7.9-0.1c2.8-0.1,5.5-0.2,8.2-0.4v61.6l-39,1.4c-38.9,1.3-65.5-5.4-79.8-20.2c-9.2-9.4-13.9-24-13.9-43.6V730.5
  			H1324.4z"/>
  		<path d="M1705.2,661.6c1.1,0.1,3.4,0.2,7.1,0.4v84.4c-5.2-0.6-9.8-1-13.9-1.2c-4-0.2-7.3-0.3-9.8-0.3c-33.1,0-55.4,10.8-66.8,32.4
  			c-6.4,12.1-9.5,30.8-9.5,56.1v150.6h-82.9v-315h78.6v54.9c12.7-21,23.8-35.4,33.2-43.1c15.4-12.9,35.4-19.4,60.1-19.4
  			C1702.8,661.4,1704.1,661.5,1705.2,661.6z"/>
  		<path d="M1942.1,675.3c22,9.8,40.1,25.4,54.4,46.6c12.9,18.7,21.3,40.4,25.1,65.1c2.2,14.5,3.1,35.3,2.7,62.5h-229.4
  			c1.3,31.6,12.3,53.8,32.9,66.5c12.6,7.9,27.7,11.8,45.4,11.8c18.8,0,34-4.8,45.7-14.4c6.4-5.2,12-12.4,16.9-21.7h84.1
  			c-2.2,18.7-12.4,37.7-30.5,56.9c-28.2,30.6-67.7,45.9-118.5,45.9c-41.9,0-78.9-12.9-111-38.8C1728,930,1712,888,1712,829.8
  			c0-54.6,14.5-96.4,43.4-125.5c28.9-29.1,66.5-43.7,112.6-43.7C1895.4,660.6,1920.1,665.5,1942.1,675.3z M1818.9,746.5
  			c-11.6,12-19,28.2-21.9,48.8h141.9c-1.5-21.9-8.8-38.5-21.9-49.8c-13.1-11.3-29.4-17-48.8-17
  			C1846.9,728.5,1830.5,734.5,1818.9,746.5z"/>
  	</g>
    <linearGradient id="gradient" x1="0%" y1="0%" x2="0%" y2="100%">
      <stop class="top" offset="0%" />
      <stop class="bottom" offset="100%" />
    </linearGradient>
  	<g class="live">
  		<path d="M168.1,1006.2h89v349.4h212.7v76.6H168.1V1006.2z"/>
  		<path d="M584,1079.6h-83.5v-76H584V1079.6z M500.5,1117.2H584v315h-83.5V1117.2z"/>
  		<path d="M600.6,1062.2H517v-76h83.5V1062.2z"/>
  		<path d="M834.2,1117.2h88.4l-113.7,315H722l-113-315h92.5l65.6,232.3L834.2,1117.2z"/>
  		<path d="M1150.9,1123.6c22,9.8,40.1,25.4,54.4,46.6c12.9,18.7,21.3,40.4,25.1,65.1c2.2,14.5,3.1,35.3,2.7,62.5h-229.4
  			c1.3,31.6,12.3,53.8,32.9,66.5c12.6,7.9,27.7,11.8,45.4,11.8c18.8,0,34-4.8,45.7-14.4c6.4-5.2,12-12.4,17-21.7h84.1
  			c-2.2,18.7-12.4,37.7-30.5,56.9c-28.2,30.6-67.7,45.9-118.5,45.9c-41.9,0-78.9-12.9-111-38.8c-32-25.8-48.1-67.9-48.1-126.1
  			c0-54.6,14.5-96.4,43.4-125.5c28.9-29.1,66.5-43.7,112.6-43.7C1104.2,1108.8,1128.9,1113.7,1150.9,1123.6z M1027.6,1194.7
  			c-11.6,12-19,28.2-21.9,48.8h141.9c-1.5-21.9-8.8-38.5-21.9-49.8c-13.1-11.3-29.4-17-48.8-17
  			C1055.7,1176.7,1039.3,1182.7,1027.6,1194.7z"/>
  	</g>
  </g>
</svg>
