<?xml version="1.0" encoding="utf-8"?>
<svg version="1.1" id="or" xmlns="http://www.w3.org/2000/svg" xmlns:xlink="http://www.w3.org/1999/xlink" x="0px" y="0px" viewBox="0 0 2200 1550" enable-background="new 0 0 2200 1550" xml:space="preserve">
<g>
	<g class="sword">
		<path class="blade" d="M1585.9,443.1c1.5,1.7,3,3.5,4.6,5.1c2.6,2.6,3.2,5.3,2.6,8.9c-4.3,24.7-19,41.7-39.8,54.2
			c-5.5,3.3-10.8,6.5-14.6,11.9c-22.9,32.5-45.9,65-69.1,97.3c-27.8,38.7-56,77.1-83.8,115.8c-11.6,16.1-22.4,32.7-34.3,48.5
			c-13.2,17.5-26.5,34.9-38.9,53c-13.2,19.3-27.6,37.7-40.6,57.2c-10.1,15.3-22.3,29.2-32.6,44.3c-15.4,22.7-31,45.3-46.9,67.6
			c-7.1,9.9-13.8,20-20.8,30c-9.6,13.7-18.7,27.9-29.2,40.9c-11.6,14.3-21.8,29.7-32.7,44.4c-6.4,8.6-12.7,17.5-18.8,26.5
			c-16.4,24.5-34.9,47.5-52,71.5c-37.1,51.9-73.7,104-110.7,155.9c-20.9,29.3-41.6,58.7-58.1,90.7c-6.8,13.2-12.7,26.7-16.8,41
			c-0.6,2.1-2.1,4.9-0.3,6.5c2.2,2,4.1-0.9,5.9-2c15.2-9.5,28.5-21.4,41.1-34.1c5.8-5.8,11.9-11.5,15.7-19.2
			c-18.9,16.6-35.1,36.2-57,49.1c7.8-10.1,16.6-19.2,24.1-29.2c17.1-22.8,32.8-46.6,49.7-69.5c114.8-155.8,230.7-310.9,346.3-466.2
			c53.8-72.2,107.5-144.4,161.3-216.7c38.8-52.2,77.6-104.4,116.5-156.6c1.5-2,2.1-5,6.2-4.5c7.3,0.9,9.7,3.6,6.8,10.5
			c-3.6,8.7-7.7,17.2-13.4,24.8c-25.6,34.5-51.7,68.7-78.1,102.6c-11.2,14.4-22.5,28.9-33,43.8c-17.6,24.8-37,48.3-53.2,74.1
			c-5,8-12.6,13.1-18.4,20.1c-9.9,11.9-17.1,25.6-27,37.6c-23.2,28.1-44.5,57.7-66.3,86.9c-15.1,20.2-28.9,41.3-44.7,60.8
			c-19.7,24.4-36.9,50.6-55.8,75.5c-25.3,33.2-48.7,67.9-72.7,102c-4.7,6.6-10.3,13.1-12,21c-0.9,4.3-1.9,8-5.1,10.5
			c-5,3.8-8.1,9-11.6,14c-15.2,21.8-32.3,42-48.7,62.9c-18.4,23.5-36.8,46.9-55,70.6c-11.4,14.8-22.3,30-33.9,45.6
			c3.7-0.8,4.8-3.3,6.3-5.2c30.3-38.4,60.8-76.8,90.8-115.4c35.1-45.1,69.9-90.3,104.7-135.6c32.3-42,64.4-84.2,97.2-125.8
			c24.6-31.2,49-62.5,73.6-93.7c31.9-40.4,63.4-81.1,94.6-122.1c32.1-42.2,64.9-83.9,97.4-125.8c33-42.5,65.6-85.3,98.4-127.9
			c4.1-5.3,7.3-11,9-17.5c6.1-23.3,18.9-42.1,38.2-56.5c3.3-2.5,5.8-3.1,9.6-1.3c1.9,0.9,3.8,1.8,5.7,2.7
			C1622.9,483.8,1588,445.4,1585.9,443.1z"/>
		<path class="hilt" d="M1949.1,76c4.3-0.7,6.1-4.3,8.1-7.6c-0.4-2.5-0.7-5-1.1-7.6c-4.8-7.8-11.9-13.3-19.4-18.1c-10.6-6.8-19.5-2.5-20.9,9.9
			c-0.5,4.6-3.1,4.5-6.4,4.2c-21.8-1.9-40.6,5.7-57.6,18.5c-8.7,6.5-14.1,15.2-15.8,26.1c-0.8,5.3,3.9,9.8,2.7,13.9
			c-3.6,12.2,5.5,28.6-11.7,36.4c-0.4,0.2-0.5,0.9-0.7,1.3c-7.7,15.9-19.7,27.5-35.1,35.9c-3.2,1.7-6.1,4.3-6.7,7.9
			c-0.8,4.4-3.5,6.7-6.9,8.6c-6.6,3.7-11.4,9.2-16.3,14.8c-8,9.3-13.4,20.2-21.8,29.3c-7.1,7.7-15.4,14.2-21.7,22.5
			c-12.2,15.9-23.9,32.2-36.6,47.7c-11.3,13.8-20.9,28.7-30.6,43.5c-9.9,15.1-19.9,30.1-26.9,46.9c-1.4,3.4-3.8,1.7-5.7,0.8
			c-11.1-5.1-22.2-10.3-32-17.8c-24.7-18.8-51.9-32.4-82.3-38.9c-25.2-5.4-50.2-5.2-74.7,3.1c-34.5,11.7-65.6,29.2-92.8,53.5
			c-17.4,15.6-31.3,34.2-43,54.4c-5,8.6-3.7,18.8,1.9,25c2.9,3.3,4.7,3.7,7.5-0.4c4.4-6.5,9.5-12.5,14.3-18.7
			c-2.4,6.3-5.2,12.1-10.4,16.7c-6.6,5.9-5.2,9.2,3,12.2c8.1,2.9,15.5,2.1,22.7-2.3c5.6-3.4,10-7.7,13.6-13.2
			c14.2-21.8,30-42.5,49.4-60.1c21.7-19.7,46.1-35,75.7-38.9c35.6-4.6,67.6,5.4,96.5,26.3c2,1.5,4.9,2.9,4.3,5.8
			c-1.7,8.6,3.3,13.8,8.7,19.1c2,1.9,3.8,4,5.6,6.1c0,0,0.1,0.1,0.1,0.1c2.1,2.3,37,40.8,80.4,61.9c0,0,0,0,0,0l-23-17.7
			c-1.1-0.5-2.2-1.1-3.3-1.6c-1-0.5-1.8-1.3-1.7-2.3c0-0.4,0.2-0.9,0.6-1.4c9.4-11,13.3-25.7,24.6-35.4c1.7-1.5,2.8-3.1,4.7-0.5
			c5.2,6.9,10.5,13.8,15.7,20.7c0.4,0.6,0.6,1.4,1,2.4c-0.3,1.3-0.1,3.2-1,4.2c-6,6.8-10,15.2-16.9,21.2c-1.5,1.3-3.5,2.5-5.6,1.5
			c-6-2.8-12-5.7-18-8.7l23,17.7c7.1,3.3,14.2,6.5,20.9,10.7c3.7,2.4,7.7,3.5,11.6,1.5c6-3,10-1,13.9,3.6c2.3,2.7,5.2,4.9,7.6,7.6
			c32.6,36.2,45,77.3,30.5,125.1c-9.5,31.3-26.7,58.2-47,83.4c-5.3,6.5-10.9,12.8-14.4,20.6c-5.7,13.1-1,28.1,11.4,36.2
			c11.3,7.4,22.3,4.8,33-6.9c24.4-26.7,41.2-57.5,50.7-92.3c7.2-26.2,12-52.9,9.4-80.1c-4.4-46-28.2-81.8-61.9-111.5
			c-13.4-11.8-27.1-23.2-38.7-36.8c-1.9-2.2-4.9-4.2-1.4-7.6c17.1-16.7,31.6-35.5,45.8-54.6c6.7-9,13.5-18,17.8-28.4
			c2.1-5.2,5.2-9.3,9.2-12.9c11.3-10,19.5-22.6,28.3-34.7c7.8-10.8,11.1-24.9,23.8-32c1.4-0.8,1.6-2.4,2.1-3.9
			c1.6-5.4,3.9-10.4,7.1-15.1c6.9-10.1,12.5-21,18.1-31.9c4.5-8.7,11.2-16.1,14.3-25.7c3.7-11.2,8.8-21.6,20.8-26.7
			c3-1.3,4.2-4.7,3.9-8.5c-0.3-5,2.3-8.2,7.4-8.7c11.2-1.1,20.7-8.3,32.2-8.5c2.3,0,4.7-1.9,6.7-3.4c16.5-12.2,22.6-29.1,20.9-48.9
			c-0.8-9.9-2-19.8-5.4-29.3C1943.3,81,1943.2,77,1949.1,76z M1311.1,463.9c-2.4,2.6-5.2,4.8-7.8,7.1c4.1-13.1,12.4-23.3,20.9-33.3
			c8.9-10.5,19.3-19.6,30.2-28c1.4-1.1,3.4-3.4,5.1-0.8c1.3,1.8-0.9,3.2-2.1,4.4C1341,429.2,1326.5,446.9,1311.1,463.9z
			 M1336.3,481.4c-3.8,5.4-10.2,8.4-13,14.8c-1.2,2.8-3.9,1.9-4.9-1c-1-2.8-0.4-5.6,0.6-8.2c7.1-19.6,20.2-34.9,35.7-50.5
			c0.3,5.3-4.2,8.1-1.8,13.6c14.2-14.2,27.5-28.4,43-40.2C1372.6,431,1354.3,456.1,1336.3,481.4z M1696.9,774.6
			c-1.1-14.9,6.2-26.6,19.4-32.2c1.5-0.7,3.2-1.9,4-3.4c3.9-7.1,11.5-9.4,17.6-13.8C1728.4,745.1,1716.9,763,1696.9,774.6z
			 M1765.8,711.2c2.1,1,1.2,3.1,0.6,4.7c-9.6,24.3-21.9,47-40.7,65.6c-0.6,0.6-1.6,0.9-4.2,2.3c3.8-11.5,10.1-19.3,15-27.8
			c8.2-14,17.8-27.2,24.9-41.9C1762.3,712.5,1763.2,710,1765.8,711.2z M1934.6,127.4c-1.8,4.2-3.9,5-8.2,2.6
			c-6.8-3.9-12.1-8.5-12.7-16.2c-1.2-3.3,0-5.6,1.2-7.8c1.8-3.4,3.4-7,5.7-9.9c2.2-2.8,0.3-9.5,6.6-8.4c6.9,1.3,12.9,8.6,12.5,14.4
			C1939.1,110.7,1938.1,119.3,1934.6,127.4z"/>
	</g>
	<path class="feather" d="M401.8,45.7C366.1,76,358.1,123,352,171.1c-0.6,4.7-0.8,9.5-2.4,14.7c-1.4-3-3.1-5.9-4.2-8.9c-8.2-22.4-9-45-9.1-67.5
		c0-2.5,0.1-5.1,0.1-7.6c0-0.4-0.3-0.8-0.7-1.8c-8.3,11-14.1,23.3-18.7,36.5c-10.5,29.8-14.5,62-18.2,94.4
		c-1.4,12.6-3.2,25.2-5.3,37.6c-0.6,3.7-2.3,7.6-4.7,9.9c-6.4,5.9-15.8,1.9-19.4-7.6c-0.7-1.8-1.2-3.7-2-6.2
		c-8.8,14.2-14.8,29.6-18.7,46.1c-4.8,20.4-6.4,41.6-5.7,63.4c1.4,45,11.7,88.9,28.4,131.7c10.9,28,24.3,55.1,36.6,82.6
		c0.8,1.7,1.6,3.4,1.9,5.4c-32-21.3-51.4-53.2-64.7-90.1c-0.6,0-1.2,0.1-1.8,0.1c1,11.3,1.4,22.7,3.3,34
		c5.4,33.1,19.8,62.9,37.9,91.1c24.8,38.5,55.4,71.6,84.3,106.4c13.7,16.5,26.6,33.9,39.8,51c0.9,1.2,1.5,2.6,3.1,5.5
		c-37.6-33.4-74.2-65.3-119.8-79.2c8.3,9,16.7,16.3,23.1,25.3c13.1,18.6,25.6,37.7,37.3,57.3c48.1,80.4,109.5,143.4,187.6,185
		c30.5,16.2,61.6,29.5,93.3,40.3c1.5,0.5,2.9,1.1,4.3,2.4c-48.9,8.7-95.3-6.1-140.5-37.8c1.4,1.9,2.8,3.7,4.3,5.5
		c1.7,2,3.4,3.9,5.2,5.9c24.4,27.5,52.2,48.9,83.7,63.3c37.1,17,75.1,24.6,113.4,27.1c3.6,0.2,7.2,0.6,11,1.6
		c-22.4,6.9-44.6,14.2-67.1,20.8c-19.6,5.7-33.8,5.3-51.5-0.5c34,49.2,72.3,91.5,122,118.9c50.4,27.7,101,28.1,151.6,22.5
		c0.3,0.8,0.6,1.5,0.9,2.3c-4.8,3.5-9.3,7.5-14.5,10.3c-23,12.2-48.6,13.8-75,11.8c-4.4-0.3-8.8-0.8-13.7-0.3c3,2.2,6,4.6,9.2,6.6
		c34.7,21.8,70.3,38.2,108.8,39.4c31.9,1,60.8-7.9,87.9-22c16.3-8.5,32.3-17.8,48.6-26.4c6.5-3.5,13.6-5.6,22.1-4.2
		c-4,3.7-8,6.5-10.9,10.4c-9.9,13.4-13.8,29.4-8.2,48c4.9,16.5,16.3,24.6,32,27.6c-9.9-15.9-15.4-32.3-9.6-48.4
		c5.7-15.8,18.3-23.5,34-26.4c-0.4,1-0.6,2-1.2,2.6c-15.2,16.4-15,37.4-8.1,60.7c4.2,14,7.7,28.2,10.4,42.4c1.2,6-0.4,12.3-0.7,19
		c10.9-9.9,14.3-23.5,13-39.3c-0.9-10.9-2.6-21.8-4.5-32.7c-2.3-13.1-1.3-25,4.3-35.6c3.6-6.9,8.4-8.9,15.4-6.5
		c-9.8,20.7-9.3,42.7,1.8,65.6c8.4,17.3,25.4,27.4,41.8,25.7c1.4-0.1,2.6-0.7,4.5-1.3c-25.9-12.2-38.2-27.7-38.6-48
		c-0.3-14.5,8.3-29.5,19.7-32.3c-6.2-6.5-11.7-12.7-17.7-18.4c-41.1-39.1-86.2-71-132.1-101.4c-41.2-27.3-82.5-54.2-123.6-81.6
		c-55.1-36.7-109.1-75.5-160.8-118.6c-65.1-54.2-125.7-114.2-178.1-184c-14-18.7-28-37.5-40.4-57.4c-33.2-53-61.6-108.5-83.5-167.4
		c-27.6-74.2-45.2-149.9-54.3-226.9c-1.1-9.6-2.2-19.2-2.2-28.8c1.3,8.1,2.6,16.3,3.9,24.4c9.2,57.2,22.7,113.8,41.4,169.4
		c21,62.7,47.8,123,81.8,179.8c12.3,20.5,24.8,41,38.4,60.6c32.2,46.5,68,89.5,106.8,129.6c55.3,57,114.6,107.9,177.5,153
		c62.3,44.6,125.6,87.1,188.4,130.5c54.6,37.7,108.7,76.3,158.5,122.6c41.3,38.4,79.2,80.5,109.7,129.8c19.4,31.3,38,63.3,56.9,94.9
		c0.4,0.7,0.9,1.4,2.5,3.8c-0.5-3.7-0.6-5.6-0.9-7.5c-3.6-18.7-7.1-37.5-11-56.2c-2.9-13.7-11.8-24.4-18.9-35.9
		c-26.7-43.3-59.5-80.4-94.2-116.1c-52.2-53.7-109.4-98.9-168.5-141.2c-12.4-8.9-25-17.6-37.5-26.3c0.2-0.5,0.4-0.9,0.7-1.4
		c15.9,10.7,31.9,21.1,47.7,32.1c16.2,11.3,32.2,22.9,48.1,34.9c15.7,11.8,31.2,23.9,46.6,36.2c15.4,12.3,30.5,25,46,37.7
		c4.6-11,12.4-16.7,23.9-15c11.2,1.6,18.7,10.5,25.6,20.4c-0.3-18.4-14.1-36-44.9-41.1c-2.2-14.1-1.3-27.2,7.2-37.3
		c8.4-10,20.5-10.2,33.1-9.4c-17.6-15.8-35.5-12.8-52.2,8.5c-8.7-26.4-16.4-53.7-47.7-57.5c3.8,3.9,7.8,7.5,11.2,11.8
		c10.2,12.6,15.3,26.6,12.4,42.1c-1.3,7.2-4.6,13.1-11.9,13.8c-7.7,0.8-13.5-4-17.8-11.3c-8.8-14.9-11.4-30.9-9.7-46.9
		c1.6-14.7,3.8-29.3,7.1-43.4c2.4-10.2,3.6-20.1,2.2-31c-5.2-40.1-18.7-76.9-45.7-108.4c-12.2-14.2-31.2-29-46.5-35.9
		c3.7,13,7.2,25.4,10.8,37.9c7.2,24.9,13.2,49.9,11.9,75.2c-0.4,7.6-1.7,15-2.6,22.9c-4.3-17.6-7.8-34.6-12.7-51.3
		c-13.2-45-31.4-87.6-60.5-124.8c-10.4-13.3-22.1-24.7-36.8-34.4c1.9,6,3.6,10.6,4.9,15.3c1.2,4.2,2.7,8.8-2,10.9
		c-4.8,2.2-7.3-2.6-9.6-5.9c-7-10.3-13.3-21.2-20.5-31.4c-8.3-11.9-18.2-22-30.9-28.7c19.7,31,31,64.2,34.3,101.5
		c-1.6-2.8-2.5-4.1-3.1-5.5c-17.8-38.5-38.7-75.1-64.6-108.4c-19.1-24.6-40.2-46.7-66-62.2c-17.9-10.6-37.1-14.8-50.7-10.9
		c5.2,6.6,10.7,12.9,15.5,19.8c11,15.8,18,33.2,20.1,52.1c0.5,4.4,0.6,9,0,13.3c-2.4,16.8-15.2,21.7-29.2,11.4
		c-11.5-8.5-19.7-20.4-27.7-32.5c-18.5-28-30.2-59-41.6-90.2c-11.2-30.7-21.4-61.9-37.7-90.6c-10.1-17.8-22.3-33.6-39-44.5
		c-1.2-0.8-2.5-1.5-3.7-2.3c-0.5-0.3-1.1-0.4-1.9-0.7c1.5,5.8,3.3,11.3,4.2,16.9c3,18.3-7.8,30-24.2,26.5
		c-14.9-3.2-25.5-14.1-33.8-27.9c-16.1-26.6-20.5-55.2-19.2-84.3c1-21.1,4.9-41,16.3-57.1c12.1-17,28.8-17.5,45.5-1.2
		c3.8,3.7,7.2,7.8,11.1,11.9c-6.9-30-32-49.9-57.6-40.2c-26.2,9.9-38,33.2-41.6,62.9c-1.3,11.2-0.3,23-0.4,34.9
		c-5.8-13.7-9.7-27.7-12-42.1c-4.9-30.6-3.3-60.5-3.1-90.6c0.1-23.5-0.5-47.1-1.8-70.7c-0.7-13.1-4.6-26-10.9-38.2
		c-1.1-2.1-2.3-4.1-3.4-6.1c-16.5,5.9-28.4-1.7-33.9-21.2c-5.6-20-3.7-39,1.2-56.9c5.1-19,11.9-37.2,18.1-56.2
		c-19.9-21.7-18.6-45.2-8.2-69.9c2.3-5.6,5.3-10.9,8.2-17c-4.3,0.4-8,0.8-11.7,1.1C411.2,41.2,406.5,43.4,401.8,45.7z"/>
</g>
</svg>
