<?xml version="1.0" encoding="utf-8"?>
<svg version="1.1" id="theNewElectricBallroom" xmlns="http://www.w3.org/2000/svg" xmlns:xlink="http://www.w3.org/1999/xlink" x="0px" y="0px" viewBox="0 0 2200 1550" enable-background="new 0 0 2200 1550" xml:space="preserve">
  <g class="shoe">
  	<path class="shadow" d="M705.8,120.2c-15.4,3.8-28.9,16.8-38,31.6c-11.2,18.2-11.2,36.9-12.7,43.4c-9,39.6-1.4,73.6,0,80.1
  		c20.9,96.4-4.8,195.8,49.8,394.7c46.8,170.8,115,276.9,169.5,361.8c56.3,87.7,91.7,121.9,138.3,131.6c71.4,14.8,111-39.8,172.9-16
  		c70.4,27.1,58.1,112.7,113,123.1c69.8,13.3,121.7-119,226-113c16.1,0.9,46.7,5.9,52.3-5.9c5.8-12.3-18.9-35.2-21.9-38
  		c-55.7-50.8-121.4-13.1-167-60.7c-11.5-12-13.8-21.1-37.1-45.5c-16.9-17.7-26.7-24.5-41.3-38c-23.2-21.4-35.2-38.3-55.7-64.9
  		c-58.5-76.3-63-72.6-97-119.8c-11.8-16.4-21-30.3-71.7-118.1c-65.8-113.8-98.7-170.6-119.8-211.7c-17.9-34.8-37.8-75.4-76.7-149.3
  		c-8.5-16.2-30.1-56.7-65.8-102.9c0,0-26.1-33.8-71.7-65.8C730.8,122.6,718.4,117.1,705.8,120.2z"/>
  	<polygon class="heel" points="710.1,834.2 722.7,1143.2 764,1127.2 758.1,903.7 	"/>
  	<path class="shoe-inside" d="M1375.1,1056.3c3.5-1.1,5.1-3.6,1.9-7.1c-3.9-4.3-7.8-8.8-11.4-13.4c-9.9-12.7-22.8-22.2-33.8-33.7
  		c-11.5-12.1-24.5-22.9-34.4-36.6c-9.2-12.6-21-23.2-29.5-36.4c-4.7-7.1-10.2-13.6-15.9-19.8c-5.7-6.3-10.7-13.2-16.2-19.7
  		c-6.4-7.6-13-14.9-19.2-22.7c-5.8-7.3-10.5-15.4-16.7-22.5c-3.8-4.2-9.4-7.4-11.7-11.6c-5-9.1-12.2-16.2-18.1-24.4
  		c-5.8-8.1-12.4-15.6-18.3-23.7c-8.1-11.1-16-22.3-23.8-33.6c-5.2-7.5-11.1-14.8-15.2-22.9c-6.4-12.4-14.9-23.4-21.4-35.7
  		c-6.8-12.9-14.8-25.2-21.9-37.9c-7.8-14-14.7-28.5-23-42.2c-8.6-14.3-17-28.8-25.5-43.1c-9.2-15.5-19.5-30.5-27.3-47.1
  		c-11.7-24.9-27.4-48-39.6-72.8c-6.5-13.2-14-25.9-20-39.4c-9.7-21.6-22.1-41.8-31.9-63.3c-8.1-17.9-17.3-35.4-26.1-53.1
  		c-7-14.1-13.6-28.5-23.4-40.9c-8.4-10.5-16.8-21.1-24.8-31.8c-7.5-10-15.1-19.8-23.2-29.3c-3.6-4.2-7.7-8-11.9-11.8
  		c-5-4.6-10.6-8.8-15-13.7c-7.7-8.7-16.6-16-25.6-22.9c-0.9-0.7-1.9-1.4-2.9-2c1.6,1.4,2.8,2.7,3.7,3.8c-0.9-1-2.1-2.3-3.7-3.8
  		c-10.7-7-23.6-9.4-36.3-11.5c-2.3-0.4-3.1-0.2-5.1,1.2c-0.7,0.2-1.9-1.6-2.5-2.1c-0.2,0.1-0.3,0.2-0.3,0.1c-4.2-2.1-6.5,0-11.2,1.1
  		c-4.4,1-17.9,17.2-20,21.9l-8,24c0,0.1,0,0.3,0,0.5c0.2,3.2,0.7,5.5,0.9,6.7c-0.2-1.1-0.7-3.5-0.9-6.7c-0.2,3.3,0.6,19.1,0.8,20.3
  		c1.4,8.1,0.3,16.3,0.7,24.5c0.6,11.8-0.6,23.9,2,35.2c3.5,15.3,5.8,30.9,9.2,46.2c2.5,11.2,2.7,23.1,5.8,34
  		c4.8,17.2,7.1,34.8,11.3,52c3.1,12.6,4.6,25.6,6.7,38.5c0.5,3.4,2.3,4.7,5.5,5.7c8.8,2.9,18.1,4.3,26.5,7.8
  		c17.3,7.2,34.1,15.6,50,25.5c15.9,9.9,31,20.8,43.7,34.7c9.2,10.1,17.2,21.3,26.5,31.1c15.9,16.9,28,36.3,39.5,56
  		c21.9,37.4,39.8,76.9,54.4,117.8c6.6,18.6,13.5,37.2,19,56.2c4.5,15.7,9.6,31.4,14.4,47c-0.1,1.2,0.2,2.3,1.1,3.1
  		c-0.3,0.3-0.2,0.6,0.1,0.9c0.5,4.8,2.2,9.4,3.9,13.9c-0.2,5.4,2.4,10.2,3.8,15.3c6.7,25.9,13.1,51.8,21.3,77.3
  		c5,15.4,10,30.8,15.8,45.9c8.2,21.6,16,43.4,25.8,64.3c8.9,18.9,20.1,36.8,30.5,55c6.1,10.6,12.6,21.1,21.9,30.6
  		c-3.4-0.4-4.9-1.9-6.4-3.2c-13.3-11.5-25.5-23.9-35.5-38.6c-17.4-25.5-31.3-52.7-42.3-81.5c-8.5-22.3-14.8-45.4-21-68.4
  		c-7.7-28.5-14.7-57.2-22.2-85.7c-7.2-27.9-14-55.9-22.3-83.4c-8.4-28-18.2-55.5-29.8-82.3c-8.6-19.7-17.4-39.5-29.4-57.2
  		c-17.6-25.9-31.9-53.9-51.1-78.8c-15.2-19.7-31.4-38.4-50.9-53.9c-14-11.1-28.3-21.5-45.2-28.2c-13.1-5.2-26-10.4-39.9-12.9
  		c-5.7-1.1-6.8,0.8-6.7,6.1c0.5,14.7-0.2,29.5,0.9,44.2c1,14.3-0.2,28.6,2,42.9c2.4,15.4,4.7,30.8,6.1,46.2
  		c1.3,14.3,3.1,28.4,4.6,42.7c2.5,23.3,10.5,45.3,15.1,68.1c4.4,21.4,10.5,42.3,19.1,62.6c12.9,30.6,24.3,61.9,36.8,92.8
  		c9.7,24.1,24.7,45.4,35.6,68.8c-0.1,0.4,0,0.8,0.3,1.1c0.4,0.5,0.7,0.9,1.1,1.4l0,0.2c1.7,7.7,6.4,13.9,9.9,20.8
  		c8.7,17.5,18.8,34.2,29.8,50.3c5.3,7.8,10,16,15,23.9c4.7,7.5,8.4,15.9,13.4,23.4c15.2,22.9,34.1,42.7,54.3,61.2
  		c16.2,14.8,33,28.2,53.7,36.7c21.2,8.6,43,13.4,65.7,13.3c32.6-0.1,64.4-6.9,96.3-12.5c3.1-0.6,5.2-2.1,6.2-5.4
  		c7-21.3,23.4-31.3,43.9-36.1c13.8-3.2,27.8-4.7,42-2.8c2.7,0.4,5.4-0.2,8.2-0.5c16.7-1.3,32.6-6.4,48.8-9.8
  		c2.2-0.5,3.8-1.7,5.4-3.1c6.5-5.9,14.8-7.6,22.8-10.1C1351.9,1063.5,1363.6,1060.1,1375.1,1056.3z"/>
  	<path class="shoe-outside" d="M1506.3,1133.3c-1.3-0.7,2.5-7.8,2.9-9.3c0.5-1.7,2.4-1.3,3.9-1.3c15.3-0.7,30.2,1.3,44.8,5.8
  		c3.8,1.2,7.8,1.9,11.7,2.7c1.4,0.3,3,0.7,3.5-1.4c-3.7-2.7-1.4-4.1,1.2-5.2c5.9-2.6,11.3-6.1,16.3-10.1c20.5-16,25-28.2,15.3-47.4
  		c-7.4-14.7-18.4-27.2-31.7-37.2c-27-20.4-58.5-32.1-89.1-45.4c-5.1-2.2-10.7-1.6-15.9,1.1c-10.5,5.6-19.4,13.2-27.6,21.8
  		c-10.6,11.1-21.2,22.2-32.2,33c-10.5,10.4-10.8,10.3-20.8-0.9c-13.6-15.2-27.3-30.2-42.6-43.8c-7.6-6.7-15-13.5-22.2-20.6
  		c-15.7-15.3-28.6-33.1-42.5-50c-11.6-14.2-23.9-27.7-36.1-41.4c-28-31.5-53.8-64.7-79-98.4c-20.8-27.9-40.3-56.6-56.9-87.2
  		c-26.8-49.4-53-99.1-82.2-147.2c-12.1-20-22.5-41-34.5-61.1c-27.2-45.5-52.4-92.1-75.2-139.9c-20.4-42.7-41-85-69.6-123
  		c-25.3-33.6-52.3-65.5-87.7-89.2c-17.1-11.4-34.9-20.9-55.6-23.8c-9.9-1.4-20.5-2.6-28,5.5c-9.1,9.8-19,19.6-24.7,31.8
  		c-14.2,29.9-31.6,58-45,88.3c-16.1,36.2-37,70-52.4,106.6c-10,23.8-18.8,47.7-22.7,73.4c-3.6,23.9-3.2,47.9-1.6,71.8
  		c2.3,33.3,8.2,65.8,25.4,95c17.9,30.3,39.1,58.3,60,86.5c18.8,25.3,40.3,48.7,56.1,76.2c5.8,10,13.7,19.2,15.8,30.7
  		c3.5,18.8,6.4,37.8,7.8,56.9c2.2,29.4,4.5,58.8,6.4,88.2c1.9,29.8,3.4,59.6,5.1,89.4c1,17.4,2.3,34.8,3.3,52.3
  		c0.8,15.7,1.3,31.4,1.9,47.1c0.4,1.2-0.1,1.9-1,2.6c0.1,0.7,0.2,1.5,0.2,2.2c2.6,7.7,1.2,15.6,1.1,23.5c0,0.6,0,1.3,0,1.9
  		c2,2.5,0.8,5.5,1.4,8.2c9.7,6.5,19.7,9.7,31.6,5.8c5.2-1.7,10.9-3.2,16.7-3c0.8-1,1.7-1.5,2.9-0.9c1.4-1.1,2.8-2.1,4.2-3.2
  		c-0.5-9-1-18.1-1.5-27.1c-0.4-7.8-0.8-8.4-7.8-5.8c-7.9,3-16.2,4.5-24.4,6.6c-3.9,1-5.9,0.6-6.4-4.4c-1.8-15.6-0.8-31.2-0.6-46.7
  		c0.5-44.7-4-89.2-4.8-133.8c-0.4-20.4-0.6-40.9-1.9-61.3c-0.5-8.1-1.6-16.1-1-25.3c4.7,3.7,5.4,8.4,7.1,12.4
  		c4.2,10.3,7.2,21,11.6,31.2c5.5,12.8,11.1,25.7,16.2,38.6c1.5,3.7,2.9,7.5,2.9,11.5c-0.1,17.3,1.9,34.5,1.3,51.7
  		c-1,28.4,1.4,56.8,2.8,85.1c0.1,3,1.9,5.6,1.6,7c0.2-1.4,0.5-4.5,0.9-7.6c-2.5-34.8-3.3-69.7-3.3-104.7c0-8.6-1.5-17.1-0.4-25.6
  		c2-0.7,2.6,0.5,2.9,1.7c6.9,27.5,14.3,54.9,23.3,81.8c3.1,9.2,5.8,18.4,8.6,27.7c0.9,3,2.3,5.9,1.3,9.2c0,0.4,0.1,0.9,0.1,1.3
  		c1.7,0.8,1.6,2.1,1,3.6c4.4,12,6.6,24.5,8.7,37.1c2.2,7,5,13.8,6.3,20.9c5.6,30.8,15.9,60.4,20.6,91.4c2.8,18.7,8,36.9,16.4,54.1
  		c18.4,30.9,48.6,44.6,80.5,56.3c53.1,19.5,108,32.9,163,45.4c50.3,11.5,101.6,16.7,152.7,23c53.3,6.6,106.7,12,160.1,17.2
  		c25.1,2.4,50.4,4.1,75.5,7.2c32.3,4,64.9,4.4,97.3,6.2c25.2,1.3,50-2.1,74.4-8.4c1.5-0.7,3.1-1.3,4.6-2.1c4-2.2,8.8-3.4,11.7-7.2
  		c2.8-3.6-1.1-6.7-1.3-10.1c0-0.4,0-0.8,0.1-1.3c1.9-17.3-3.9-32.7-12.2-47.4c-7.5-13.4-17.7-24.9-26.6-37.4
  		c-13.4-18.6-27.7-36.6-41.3-55c-14.6-19.8-28.8-39.9-43.4-59.6c-4.9-6.7-10.5-12.8-16-19.4c3-1.2,5,0.1,6.7,1
  		c10.7,5.4,21.1,11.3,29.9,19.8c11.9,11.7,25,22.1,39.5,30.3c16.7,9.5,32.7,0.1,33.8-19c0.9-15-11.6-33.2-27-39.3
  		c-7-2.8-13.9-5.8-20.4-9.6c-1.9-1.1-3.2-2-0.9-4.6c3.6-4,3.2-8.8,0.2-13.4c-2.7-4.2-6.7-6.3-11.2-7.6c-2.5-0.7-4.8-1.4-2.2-4.5
  		c-18.3-6.9-44.6,1.9-64.9,0.3L1506.3,1133.3z M1312.1,1080.3c-16.2,3.4-32.1,8.5-48.8,9.8c-2.7,0.2-5.5,0.8-8.2,0.5
  		c-14.2-1.9-28.2-0.5-42,2.8c-20.5,4.8-37,14.8-43.9,36.1c-1.1,3.3-3.1,4.8-6.2,5.4c-31.9,5.7-63.7,12.4-96.3,12.5
  		c-22.6,0.1-44.5-4.6-65.7-13.3c-20.6-8.4-37.5-21.9-53.7-36.7c-20.3-18.5-39.1-38.2-54.3-61.2c-5-7.5-8.7-15.9-13.4-23.4
  		c-5-7.9-9.7-16.1-15-23.9c-11-16.1-21.1-32.8-29.8-50.3c-3.4-6.9-8.2-13.1-9.9-20.8l0-0.2c-0.4-0.5-0.7-0.9-1.1-1.4
  		c-0.2-0.3-0.3-0.7-0.3-1.1c-10.9-23.4-25.9-44.6-35.6-68.8c-12.4-30.9-23.8-62.1-36.8-92.8c-8.6-20.3-14.7-41.2-19.1-62.6
  		c-4.7-22.8-12.7-44.8-15.1-68.1c-1.5-14.2-3.3-28.4-4.6-42.7c-1.5-15.5-3.8-30.9-6.1-46.2c-2.2-14.2-1-28.6-2-42.9
  		c-1-14.7-0.4-29.4-0.9-44.2c-0.2-5.2,1-7.1,6.7-6.1c13.9,2.6,26.8,7.8,39.9,12.9c16.9,6.7,31.3,17.1,45.2,28.2
  		c19.5,15.5,35.7,34.2,50.9,53.9c19.1,24.9,33.5,52.8,51.1,78.8c12,17.7,20.8,37.5,29.4,57.2c11.7,26.8,21.4,54.3,29.8,82.3
  		c8.3,27.6,15.1,55.6,22.3,83.4c7.4,28.6,14.5,57.2,22.2,85.7c6.2,23,12.5,46.1,21,68.4c11,28.8,24.9,56,42.3,81.5
  		c10,14.7,22.2,27.1,35.5,38.6c1.5,1.3,3.1,2.8,6.4,3.2c-9.3-9.5-15.8-20-21.9-30.6c-10.5-18.2-21.7-36.1-30.5-55
  		c-9.8-20.9-17.6-42.7-25.8-64.3c-5.7-15.1-10.8-30.5-15.8-45.9c-8.2-25.4-14.6-51.4-21.3-77.3c-1.3-5.1-3.9-9.8-3.8-15.3
  		c-1.7-4.5-3.4-9-3.9-13.9c-0.3-0.3-0.3-0.6-0.1-0.9c-1-0.8-1.2-1.9-1.1-3.1c-4.8-15.7-9.8-31.3-14.4-47c-5.5-19-12.4-37.6-19-56.2
  		c-14.5-40.9-32.5-80.4-54.4-117.8c-11.5-19.6-23.6-39.1-39.5-56c-9.3-9.8-17.3-21-26.5-31.1c-12.7-13.9-27.8-24.8-43.7-34.7
  		c-15.9-9.9-32.7-18.3-50-25.5c-8.4-3.5-17.7-5-26.5-7.8c-3.2-1.1-5-2.3-5.5-5.7c-2.1-12.9-3.6-25.9-6.7-38.5
  		c-4.3-17.2-6.5-34.8-11.3-52c-3.1-10.9-3.2-22.8-5.8-34c-3.5-15.3-5.8-30.8-9.2-46.2c-2.6-11.3-1.4-23.4-2-35.2
  		c-0.4-8.2,0.7-16.4-0.7-24.5c-0.2-1.2-1-17-0.8-20.3c-0.4-6.7,0.3-17,6.4-27.4c1.2-2.1,10.8-17.7,30.5-22.1
  		c23.6-5.3,42,10.4,45.1,13.1c0.5,0.4,1,0.9,1.5,1.3c1,0.6,2,1.3,2.9,2c9,6.9,17.9,14.1,25.6,22.9c4.3,4.9,9.9,9.1,15,13.7
  		c4.1,3.8,8.3,7.6,11.9,11.8c8.1,9.4,15.7,19.3,23.2,29.3c8,10.7,16.5,21.3,24.8,31.8c9.9,12.4,16.4,26.8,23.4,40.9
  		c8.8,17.6,17.9,35.1,26.1,53.1c9.8,21.6,22.2,41.7,31.9,63.3c6,13.4,13.5,26.1,20,39.4c12.2,24.8,27.9,47.9,39.6,72.8
  		c7.8,16.7,18,31.6,27.3,47.1c8.5,14.3,16.9,28.8,25.5,43.1c8.3,13.7,15.2,28.2,23,42.2c7.1,12.7,15.1,25,21.9,37.9
  		c6.5,12.3,15,23.3,21.4,35.7c4.2,8.1,10,15.4,15.2,22.9c7.9,11.3,15.7,22.5,23.8,33.6c5.9,8,12.5,15.6,18.3,23.7
  		c5.9,8.2,13.2,15.3,18.1,24.4c2.3,4.2,8,7.4,11.7,11.6c6.3,7,10.9,15.2,16.7,22.5c6.2,7.7,12.8,15.1,19.2,22.7
  		c5.5,6.5,10.5,13.3,16.2,19.7c5.6,6.3,11.2,12.7,15.9,19.8c8.6,13.1,20.3,23.7,29.5,36.4c9.9,13.7,22.9,24.4,34.4,36.6
  		c11,11.5,23.9,21.1,33.8,33.7c3.6,4.6,7.5,9,11.4,13.4c3.2,3.5,1.6,6-1.9,7.1c-11.5,3.8-23.2,7.2-34.8,10.8
  		c-8,2.5-16.3,4.3-22.8,10.1C1315.9,1078.6,1314.2,1079.9,1312.1,1080.3z M1325.3,1223.5c-2.7-0.7-4.9-2.1-5.9-5.3
  		c1.9-0.5,3.7-0.9,5.5-1.4c-1.9-2.7-1.2-4.4,2.2-4.3c3.2,0.1,6.1-0.9,9.2-2.3C1332.2,1214.4,1336,1224.7,1325.3,1223.5z
  		 M1426.2,1156.5c-15.8,7.4-31.6,14.7-45.7,25.4c-6.5,4.9-13.4,9.9-21,12.4c-10.6,3.5-19.5,9.7-29.1,15c-2.1,1.2-4.7,1.6-7.7,1.2
  		c1.4-4.1,5.4-5.2,8-7.7c4.9-4.8,11.7-7.4,15.3-13.7c0.7-1.2,2.3-0.5,3.5-0.4c1.7-1.4,2.9-3.3,5.3-3.7c1.4-2.3,3.2-4,6.1-4.2
  		c1.2-1,1.9-2.6,3.7-2.6c1-1.6,2.5-2.5,4.4-2.6c1-2.6,3.2-3.4,5.7-3.7l0.1,0c1.7-3.3,4.9-4.3,8.2-5l0.1,0
  		c12.1-10.6,25.3-18.6,42-18.3c5.1,0.1,9,2.5,10.3,8.5C1432.3,1153.4,1429.1,1155.2,1426.2,1156.5z"/>
  	<path class="shadow" d="M1451.5,1158c-8.5-7-13.4-11-26.3-9.5c-12.9,1.5-33.2,11.5-46.5,16s-52.2,7.6-65.2,15.1c-13,7.4-17.5,15.9-16.5,25.4
  		s8,16.1,11,18.6s12.1,2.4,14.8,2.4c2.7,0,23.2-9.1,23.2-9.1c7.1-8.1,8.2-12.4,26-22.9c20.3-12,35.5-17.7,47-18.4
  		c11.5-0.6,24.5,3.9,32.5-4.6S1451.5,1158,1451.5,1158z"/>
  </g>
</svg>
