<?xml version="1.0" encoding="utf-8"?>
<svg version="1.1" id="theRealisticJoneses" xmlns="http://www.w3.org/2000/svg" xmlns:xlink="http://www.w3.org/1999/xlink" x="0px" y="0px" viewBox="0 0 2200 1550" enable-background="new 0 0 2200 1550" xml:space="preserve">
  <g class="fence">
  	<path d="M2160,1029.2H40c-2.2,0-4-1.8-4-4v-49.5c0-2.2,1.8-4,4-4h2120c2.2,0,4,1.8,4,4v49.5C2164,1027.4,2162.2,1029.2,2160,1029.2 z"/>
  	<path d="M2160,647H40c-2.2,0-4-1.8-4-4v-49.5c0-2.2,1.8-4,4-4h2120c2.2,0,4,1.8,4,4V643C2164,645.2,2162.2,647,2160,647z"/>
  	<path d="M187.1,442.7c-0.1-0.3-0.3-0.6-0.5-0.9l-55.3-51.4c-1.2-1.1-3.1-1.1-4.2,0l-56.5,52.5c-0.6,0.3-1,0.7-1.3,1.3 c-0.6,0.8-0.3,1.9-0.3,2.8V1155c0,1.5,1.3,2,3,2h114.4c1.6,0,2.7-0.5,2.7-2V445.3C189,444.1,188.3,443,187.1,442.7z"/>
  	<path d="M1740.4,442.7c-0.1-0.3-0.1-0.6-0.4-0.9l-55.2-51.4c-1.2-1.1-3-1.1-4.2,0l-56.5,52.5c-0.6,0.3-1.3,0.7-1.6,1.3 c-0.6,0.8-0.6,1.9-0.6,2.8V1155c0,1.5,1.9,2,3.5,2h114.4c1.6,0,2.1-0.5,2.1-2V445.3C1742,444.1,1741.6,443,1740.4,442.7z"/>
  	<path d="M1351.8,442.7c-0.1-0.3-0.4-0.6-0.7-0.9l-55.4-51.4c-1.2-1.1-3.1-1.1-4.3,0l-56.5,52.5c-0.6,0.3-0.7,0.7-1,1.3 c-0.6,0.8,0,1.9,0,2.8V1155c0,1.5,0.7,2,2.4,2h114.4c1.6,0,3.2-0.5,3.2-2V445.3C1354,444.1,1353,443,1351.8,442.7z"/>
  	<path d="M1157.6,442.7c-0.1-0.3-0.5-0.6-0.8-0.9l-55.4-51.4c-1.2-1.1-3.1-1.1-4.3,0l-56.5,52.5c-0.6,0.3-0.5,0.7-0.8,1.3 c-0.6,0.8,0.2,1.9,0.2,2.8V1155c0,1.5,0.3,2,1.9,2h114.4c1.6,0,3.7-0.5,3.7-2V445.3C1160,444.1,1158.8,443,1157.6,442.7z"/>
  	<path d="M963.4,442.7c-0.1-0.3-0.1-0.6-0.4-0.9l-55.2-51.4c-1.2-1.1-3-1.1-4.2,0l-56.5,52.5c-0.6,0.3-1.3,0.7-1.5,1.3 c-0.6,0.8-0.5,1.9-0.5,2.8V1155c0,1.5,1.9,2,3.5,2h114.4c1.6,0,2.1-0.5,2.1-2V445.3C965,444.1,964.6,443,963.4,442.7z"/>
  	<path d="M574.8,442.7c-0.1-0.3-0.4-0.6-0.7-0.9l-55.4-51.4c-1.2-1.1-3.1-1.1-4.3,0l-56.5,52.5c-0.6,0.3-0.8,0.7-1,1.3 c-0.6,0.8,0,1.9,0,2.8V1155c0,1.5,0.8,2,2.5,2h114.4c1.6,0,3.2-0.5,3.2-2V445.3C577,444.1,576,443,574.8,442.7z"/>
  	<path d="M381.1,442.7c-0.1-0.3-0.2-0.6-0.5-0.9l-55.3-51.4c-1.2-1.1-3-1.1-4.2,0l-56.5,52.5c-0.6,0.3-1,0.7-1.3,1.3 c-0.6,0.8-0.3,1.9-0.3,2.8V1155c0,1.5,1.4,2,3.1,2h114.4c1.6,0,2.6-0.5,2.6-2V445.3C383,444.1,382.3,443,381.1,442.7z"/>
  	<path d="M2128.1,442.7c-0.1-0.3-0.3-0.6-0.5-0.9l-55.3-51.4c-1.2-1.1-3.1-1.1-4.2,0l-56.5,52.5c-0.6,0.3-1,0.7-1.3,1.3 c-0.6,0.8-0.3,1.9-0.3,2.8V1155c0,1.5,1.3,2,3,2h114.4c1.6,0,2.7-0.5,2.7-2V445.3C2130,444.1,2129.3,443,2128.1,442.7z"/>
  </g>
  <path class="board" d="M1620.3,462c-0.1-0.3,0-0.6-0.2-0.9l-43.2-61.9c-0.9-1.3-2.7-1.7-4.1-0.9l-66.2,39.4 c-0.6,0.2-1.4,0.4-1.8,0.9c-0.8,0.7-0.9,1.7-1.1,2.6l-149.1,692.2c-0.3,1.5,1.4,2.4,3,2.8l111.8,24.1c1.6,0.3,2.2-0.1,2.5-1.6 L1621.3,465C1621.6,463.8,1621.4,462.7,1620.3,462z"/>
</svg>
