<?xml version="1.0" encoding="utf-8"?>
<svg version="1.1" id="thirdRailMembership" xmlns="http://www.w3.org/2000/svg" xmlns:xlink="http://www.w3.org/1999/xlink" x="0px" y="0px" viewBox="0 0 2200 1550" enable-background="new 0 0 2200 1550" xml:space="preserve">
	<polygon class="lightning-bolt" points="1273.8,615.5 1276,343.9 1214.3,403.6 1226.7,152.2 1182.6,175.6 1138.5,152.2 1138.5,536.1 1211.2,466  1211.2,615.3 1167.8,608.2 1243,709.6 1318.3,608.2 "/>
	<g class="third-rail">
		<g class="third">
			<path class="t" d="M246,316.1h-42.2v-56.9h144.3v56.9h-42.2v286.6H246V316.1z"/>
			<path class="h" d="M373.2,259.2H433v142.3h52V259.2h59.9v343.5h-59.9V458.4h-52v144.3h-59.9V259.2z"/>
			<path class="i" d="M581.3,259.2h59.9v343.5h-59.9V259.2z"/>
			<path class="r" d="M677.5,259.2h61.8c61.4,0,106,32.4,106,109.4v4.4c0,44.7-17.7,73.1-40.2,90.3l46.1,139.4h-63.8l-38.8-119.7h-11.3v119.7 h-59.9V259.2z M740.3,428.9c26,0,45.2-15.2,45.2-55.5v-3.9c0-43.2-20.6-54.5-46.6-54.5h-1.5v113.8H740.3z"/>
			<path class="d" d="M872.8,259.2h56c76.6,0,120.3,55.5,120.3,165.9v11.8c0,110.4-43.7,165.9-120.3,165.9h-56V259.2z M935.1,547.7 c28.5,0,53-25,53-110.9V425c0-85.9-24.5-110.9-53-110.9h-2.5v233.6H935.1z"/>
		</g>
		<g class="rail">
			<path class="r" d="M1370.5,259.6h61.8c61.4,0,106,32.4,106,109.4v4.4c0,44.7-17.7,73.1-40.2,90.3l46.1,139.4h-63.8l-38.8-119.7h-11.3v119.7 h-59.9V259.6z M1433.3,429.4c26,0,45.2-15.2,45.2-55.5v-3.9c0-43.2-20.6-54.5-46.6-54.5h-1.5v113.8H1433.3z"/>
			<path class="a" d="M1613.9,258.7h63.8l65.3,344.5h-59.9l-11.3-68.2h-54.5l-10.8,68.2h-57.9L1613.9,258.7z M1663,481l-18.2-113.4L1626.2,481 H1663z"/>
			<path class="i" d="M1762.1,259.6h59.9v343.5h-59.9V259.6z"/>
			<path class="l" d="M1858.3,259.6h59.9v286.6h63.3v56.9h-123.2V259.6z"/>
		</g>
	</g>
	<g class="membership">
		<path  class="m" d="M207.5,951.9h58.1l41.3,122.9l41.3-122.9h58.1v335.9H350v-203L307.3,1212h-1l-42.7-127.2v203h-56.1V951.9z"/>
		<path  class="e" d="M440.7,951.9h128.6v55.7h-70.1v83.5h61.9v55.7h-61.9v85.4h71.5v55.7h-130V951.9z"/>
		<path  class="m" d="M599,951.9h58.1l41.3,122.9l41.3-122.9h58.1v335.9h-56.1v-203L698.9,1212h-1l-42.7-127.2v203H599V951.9z"/>
		<path  class="b" d="M832.3,951.9h50.9c56.6,0,109.4,23,109.4,85.4v2.4c0,43.2-24.5,64.3-48.5,75.8c28.3,12.5,52.8,32.2,52.8,74.9v4.3 c0,59.5-46.1,93.1-111.3,93.1h-53.3V951.9z M891.8,1092.9c25.9,0,43.2-14.9,43.2-44.1v-1c0-29.3-17.3-41.7-43.2-41.7h-1v86.9H891.8 z M892.2,1233.5c26.9,0,46.1-15.8,46.1-43.7v-2.4c0-27.8-19.2-43.7-46.1-43.7h-1.4v89.7H892.2z"/>
		<path  class="e" d="M1021.3,951.9h128.6v55.7h-70.1v83.5h61.9v55.7h-61.9v85.4h71.5v55.7h-130V951.9z"/>
		<path  class="r" d="M1179.7,951.9h60.5c60,0,103.7,31.7,103.7,107v4.3c0,43.7-17.3,71.5-39.4,88.3l45.1,136.3h-62.4l-37.9-117.1h-11v117.1 h-58.5V951.9z M1241.1,1117.9c25.4,0,44.1-14.9,44.1-54.2v-3.8c0-42.2-20.2-53.3-45.6-53.3h-1.4v111.3H1241.1z"/>
		<path  class="s" d="M1363.5,1276.3v-60.9c20.6,12,37,18.7,52.8,18.7c16.8,0,31.2-8.2,31.2-28.8v-1c0-15.4-4.8-26.9-32.6-58.5 c-39.8-45.1-56.1-66.7-56.1-107.5v-1c0-53.7,35-87.8,81.6-87.8c23.5,0,37.4,3.4,51.8,10.6v60.9c-18.2-10.6-29.3-15.4-44.6-15.4 c-16.3,0-30.2,10.6-30.2,28.8v1c0,15.8,4.8,21.6,32.6,53.7c46.1,53.3,56.1,73.9,56.1,112.3v1c0,52.8-37,87.8-83,87.8 C1399.9,1290.2,1380.3,1284.4,1363.5,1276.3z"/>
		<path  class="h" d="M1526.6,951.9h58.5V1091h50.9V951.9h58.5v335.9H1636v-141.1h-50.9v141.1h-58.5V951.9z"/>
		<path  class="i" d="M1730.1,951.9h58.5v335.9h-58.5V951.9z"/>
		<path  class="p" d="M1824.2,951.9h52.3c63.8,0,108.5,34.6,108.5,113.3v1c0,75.8-42.2,111.8-101.7,116.1h-0.5v105.6h-58.5V951.9z M1883.2,1128c24.5-1.4,43.2-19.2,43.2-60v-1c0-42.7-16.3-60.9-41.7-60.9h-1.9V1128H1883.2z"/>
	</g>
</svg>
