<?xml version="1.0" encoding="utf-8"?>
<svg version="1.1" id="thirdRailLogo" xmlns="http://www.w3.org/2000/svg" xmlns:xlink="http://www.w3.org/1999/xlink" x="0px" y="0px" viewBox="0 0 1850 600" enable-background="new 0 0 1850 600" xml:space="preserve">
	<polygon class="lightning-bolt" points="1082.9,460.9 1084.8,224.1 1031.1,276.2 1041.9,56.9 1003.4,77.4 965,56.9 965,391.8 1028.4,330.6 1028.4,460.8 990.6,454.6 1056.1,543.1 1121.7,454.6 "/>
	<g class="third">
		<path class="t" d="M186.7,199.9h-36.8v-49.6h125.8v49.6h-36.8v249.9h-52.2V199.9z"/>
		<path class="h" d="M297.5,150.2h52.2v124.1h45.4V150.2h52.2v299.6h-52.2V324h-45.4v125.8h-52.2V150.2z"/>
		<path class="i" d="M479,150.2h52.2v299.6H479V150.2z"/>
		<path class="r" d="M562.9,150.2h53.9c53.5,0,92.5,28.2,92.5,95.4v3.9c0,38.9-15.4,63.8-35.1,78.7l40.2,121.5h-55.6L625,345.4 h-9.8v104.4h-52.2V150.2z M617.7,298.3c22.7,0,39.4-13.3,39.4-48.4v-3.4c0-37.7-18-47.5-40.7-47.5h-1.3v99.3H617.7z"/>
		<path class="d" d="M733.3,150.2h48.8c66.8,0,104.9,48.4,104.9,144.7v10.3c0,96.3-38.1,144.7-104.9,144.7h-48.8V150.2z M787.6,401.9c24.8,0,46.2-21.8,46.2-96.7v-10.3c0-74.9-21.4-96.7-46.2-96.7h-2.1v203.7H787.6z"/>
	</g>
	<g class="rail">
		<path class="r" d="M1167.3,150.6h53.9c53.5,0,92.5,28.2,92.5,95.4v3.9c0,38.9-15.4,63.8-35.1,78.7l40.2,121.5h-55.6 l-33.8-104.4h-9.8v104.4h-52.2V150.6z M1222.1,298.7c22.7,0,39.4-13.3,39.4-48.4v-3.4c0-37.7-18-47.5-40.7-47.5h-1.3v99.3H1222.1z"/>
		<path class="a" d="M1379.6,149.8h55.6l56.9,300.4h-52.2l-9.8-59.5h-47.5l-9.4,59.5h-50.5L1379.6,149.8z M1422.4,343.7 l-15.8-98.9l-16.3,98.9H1422.4z"/>
		<path class="i" d="M1508.8,150.6h52.2v299.6h-52.2V150.6z"/>
		<path class="l" d="M1592.7,150.6h52.2v249.9h55.2v49.6h-107.4V150.6z"/>
	</g>
</svg>
