<?xml version="1.0" encoding="utf-8"?>
<!-- Generator: Adobe Illustrator 19.0.0, SVG Export Plug-In . SVG Version: 6.00 Build 0)  -->
<svg version="1.1" id="wildcard" xmlns="http://www.w3.org/2000/svg" xmlns:xlink="http://www.w3.org/1999/xlink" x="0px" y="0px" viewBox="0 0 2200 1550" enable-background="new 0 0 2200 1550" xml:space="preserve">
  <g class="cards">
  	<path d="M792.7,1514H500.6c-6,0-11-4.9-11-11v-447.5 c0-6.1,5-11,11-11h292.1c6,0,11,4.9,11,11V1503C803.7,1509.1,798.8,1514,792.7,1514z"/>
  	<path d="M1246.1,506.4H953.9c-6,0-11-5-11-11V47.9 c0-6.1,5-11,11-11h292.1c6,0,11,4.9,11,11v447.5C1257.1,501.5,1252.1,506.4,1246.1,506.4z"/>
  	<path d="M1246.2,1009.8H954.1c-6,0-11-5-11-11V551.2 c0-6.1,5-11,11-11h292.1c6.1,0,11,4.9,11,11v447.5C1257.2,1004.8,1252.3,1009.8,1246.2,1009.8z"/>
  	<path d="M2153.2,1514h-292.1c-6,0-11-4.9-11-11v-447.5 c0-6.1,5-11,11-11h292.1c6,0,11,4.9,11,11V1503C2164.2,1509.1,2159.2,1514,2153.2,1514z"/>
  	<path d="M339.3,1010.3H47.2c-6.1,0-11-4.9-11-11V551.7 c0-6,4.9-11,11-11h292.1c6.1,0,11,5,11,11v447.5C350.3,1005.3,345.3,1010.3,339.3,1010.3z"/>
  	<path d="M2153.2,504.6h-292.1c-6,0-11-5-11-11V46 c0-6.1,5-11,11-11h292.1c6,0,11,4.9,11,11v447.5C2164.2,499.6,2159.2,504.6,2153.2,504.6z"/>
  	<path d="M1246.1,1514H953.9c-6,0-11-4.9-11-11v-447.5 c0-6.1,5-11,11-11h292.1c6,0,11,4.9,11,11V1503C1257.1,1509.1,1252.1,1514,1246.1,1514z"/>
  	<path d="M792.7,1010.3H500.6c-6.1,0-11-5-11-11V551.7 c0-6,4.9-11,11-11h292.1c6,0,11,5,11,11v447.5C803.7,1005.3,798.8,1010.3,792.7,1010.3z"/>
  	<path d="M339.3,504.6H47.2c-6.1,0-11-5-11-11V46 c0-6.1,4.9-11,11-11h292.1c6,0,11,4.9,11,11v447.5C350.3,499.6,345.3,504.6,339.3,504.6z"/>
  	<path d="M1699.7,504.6h-292.1c-6,0-11-5-11-11V46 c0-6.1,5-11,11-11h292.1c6.1,0,11,4.9,11,11v447.5C1710.7,499.6,1705.7,504.6,1699.7,504.6z"/>
  	<path d="M2153.2,1010.3h-292.1c-6,0-11-4.9-11-11V551.7 c0-6,5-11,11-11h292.1c6,0,11,5,11,11v447.5C2164.2,1005.3,2159.2,1010.3,2153.2,1010.3z"/>
  	<path d="M1699.7,1514h-292.1c-6,0-11-4.9-11-11v-447.5 c0-6.1,5-11,11-11h292.1c6.1,0,11,4.9,11,11V1503C1710.7,1509.1,1705.7,1514,1699.7,1514z"/>
  	<path d="M792.7,504.6H500.6c-6.1,0-11-5-11-11V46 c0-6.1,4.9-11,11-11h292.1c6,0,11,4.9,11,11v447.5C803.7,499.6,798.8,504.6,792.7,504.6z"/>
  	<path d="M1699.7,1010.3h-292.1c-6,0-11-5-11-11V551.7 c0-6,5-11,11-11h292.1c6.1,0,11,5,11,11v447.5C1710.7,1005.3,1705.7,1010.3,1699.7,1010.3z"/>
  	<path d="M339.3,1514H47.2c-6,0-11-4.9-11-11v-447.5 c0-6.1,5-11,11-11h292.1c6,0,11,4.9,11,11V1503C350.3,1509.1,345.3,1514,339.3,1514z"/>
  </g>
  <g class="wildcard">
  	<path d="M85.7,129.9h46.9l19.1,160.9l22.9-160.9h42.4l22.5,160.9l19.5-160.9h45.8l-39.8,263.2h-48l-21.8-155.6l-21.8,155.6h-48 L85.7,129.9z"/>
  	<path d="M625.8,130.3h45.8v262.5h-45.8V130.3z"/>
  	<path d="M1053.4,130.3h45.8v219h48.4v43.5h-94.1V130.3z"/>
  	<path d="M1488.3,130.3h42.8c58.5,0,91.9,42.4,91.9,126.8v9c0,84.4-33.4,126.8-91.9,126.8h-42.8V130.3z M1535.9,350.8 c21.8,0,40.5-19.1,40.5-84.8v-9c0-65.6-18.8-84.8-40.5-84.8h-1.9v178.5H1535.9z"/>
  	<path d="M592.9,1283.7v-9c0-92.2,34.1-128.6,76.9-128.6c12.8,0,20.2,1.5,30,6v47.2c-9.4-5.6-16.9-8.6-25.5-8.6 c-20.2,0-34.9,18-34.9,83.6v9.8c0,69.4,14.6,83.6,35.6,83.6c7.1,0,16.1-2.6,25.5-8.2v45c-10.5,6-20.6,7.9-33.8,7.9 C624.8,1412.4,592.9,1375.2,592.9,1283.7z"/>
  	<path d="M1076.1,1147.6h48.8l49.9,263.2H1129l-8.6-52.1h-41.6l-8.2,52.1h-44.2L1076.1,1147.6z M1113.6,1317.5l-13.9-86.6 l-14.2,86.6H1113.6z"/>
  	<path d="M1489.2,1148h47.2c46.9,0,81,24.8,81,83.6v3.4c0,34.1-13.5,55.9-30.8,69l35.2,106.5h-48.8l-29.6-91.5h-8.6v91.5h-45.8 V1148z M1537.2,1277.7c19.9,0,34.5-11.6,34.5-42.4v-3c0-33-15.8-41.6-35.6-41.6h-1.1v87H1537.2z"/>
  	<path d="M1945.1,1148h42.8c58.5,0,91.9,42.4,91.9,126.8v9c0,84.4-33.4,126.8-91.9,126.8h-42.8V1148z M1992.7,1368.5 c21.8,0,40.5-19.1,40.5-84.8v-9c0-65.6-18.8-84.8-40.5-84.8h-1.9v178.5H1992.7z"/>
  </g>
  <g class="symbols">
  	<path class="special" d="M708.7,270.5c-0.6,0.9-1.1,1.9-1.8,2.8c-19.4,23.1-38.8,46.1-58.1,69.2c-1.8,2.2-2.7,2.1-4.4,0c-19.2-23-38.5-45.9-58-68.7 c-2.5-2.9-2.3-4.6,0.1-7.5c18.6-22.2,37-44.5,55.5-66.9c4.4-5.3,4.7-5.3,9.1,0c18.2,22.1,36.5,44.1,54.7,66.2 C707,267.1,708.3,268.4,708.7,270.5z"/>
  	<path class="special" d="M1129.9,251c15.4-2.1,27.9,3.8,33.6,15.3c6.2,12.5,3.6,30.6-5.8,40.2c-9.9,10-26,12.9-38.4,6.7c-2.4-1.2-4.7-2.5-6.9-4 c-3.2-2.3-3.9-0.9-4,2.3c-0.4,9.4,3.9,17,9.2,24.2c0.9,1.2,2.6,2.1,2,3.7c-0.7,1.8-2.6,0.9-4,0.9c-11,0-22,0-33-0.1 c-1.4,0-3.4,0.6-4.2-0.8c-1.1-1.9,1-2.9,1.9-4.2c4.2-5.7,7.7-11.7,9.3-18.6c0.7-3.1,0.9-6.1,0.1-10.3c-7.4,7.1-15.5,10-25,9.9 c-18.8-0.4-31.7-13.2-31.7-31.9c-0.1-19.9,9.8-31.7,28.4-34c2.3-0.3,4.6-0.2,7,0.2c2.9,0.6,3.8-0.2,2.2-3.1 c-2.7-4.7-4.1-9.8-3.8-15.3c0.8-19.5,15.8-27.6,31-29.2c6-0.6,12,0,17.8,1.9c18.4,5.8,26.1,24.7,16.9,41.7 C1131.7,247.9,1131,249.1,1129.9,251z"/>
  	<path class="special" d="M193.2,342.1c-5.5,0-11,0.1-16.5,0c-1.4,0-3.3,0.9-4.1-0.8c-0.6-1.4,1-2.3,1.8-3.3c4.3-6,8.1-12.2,9.5-19.6 c0.2-1.3,0.5-2.6,0.5-4c0-1.8,0.4-4-1.3-5.1c-1.7-1.1-3,0.9-4.3,1.7c-20.4,11.7-46.4-2.8-47.5-26.3c-0.7-16.3,6.7-28.8,17-40.2 c11.1-12.2,24.1-22.6,34.5-35.4c2.6-3.2,5.2-6.5,7.7-9.8c1.3-1.7,2.5-2.9,4.2-0.5c12.6,18.1,30.2,31.4,45,47.4 c8.2,8.9,14.1,19.2,15.3,31.4c1.3,13.7-3.4,25.4-15.1,33.3c-11.1,7.4-22.6,6.9-33.7-0.4c-0.9-0.6-1.9-1.8-3.1-1.1 c-1.6,0.9-1.1,2.7-0.9,4.1c1,9.1,5,16.8,10.5,23.9c0.9,1.1,2.7,2.1,2,3.7c-0.8,1.9-2.9,1.1-4.5,1.1 C204.5,342.1,198.8,342,193.2,342.1C193.2,342,193.2,342.1,193.2,342.1z"/>
  	<path class="special" d="M1553.6,342.1c-5.5,0-11,0.1-16.5,0c-1.4,0-3.3,0.9-4.1-0.8c-0.6-1.4,1-2.3,1.8-3.3c4.3-6,8.1-12.2,9.5-19.6 c0.2-1.3,0.5-2.6,0.5-4c0-1.8,0.4-4-1.3-5.1c-1.7-1.1-3,0.9-4.3,1.7c-20.4,11.7-46.4-2.8-47.5-26.3c-0.7-16.3,6.7-28.8,17-40.2 c11.1-12.2,24.1-22.6,34.5-35.4c2.6-3.2,5.2-6.5,7.7-9.8c1.3-1.7,2.5-2.9,4.2-0.5c12.6,18.1,30.2,31.4,45,47.4 c8.2,8.9,14.1,19.2,15.3,31.4c1.3,13.7-3.4,25.4-15.1,33.3c-11.1,7.4-22.6,6.9-33.7-0.4c-0.9-0.6-1.9-1.8-3.1-1.1 c-1.6,0.9-1.1,2.7-0.9,4.1c1,9.1,5,16.8,10.5,23.9c0.9,1.1,2.7,2.1,2,3.7c-0.8,1.9-2.9,1.1-4.5,1.1 C1564.9,342.1,1559.3,342,1553.6,342.1C1553.6,342,1553.6,342.1,1553.6,342.1z"/>
  	<path d="M2007.3,233.9c1.4-1.3,1.4-3,1.9-4.5c4.8-13,14.4-20.7,27.9-21.8c11.9-1,21.7,4.8,28.3,14.8c7.1,10.6,9.5,22,4.8,34.6 c-4.6,12.5-11.9,23-20.9,32.6c-13,13.9-27.4,26.3-39.7,40.9c-1.9,2.3-3.4,2.7-5.5,0.1c-12.7-15.8-28.1-28.9-41.9-43.6 c-10.6-11.3-18.3-24.1-20.6-39.7c-1.7-12.1,6.9-28.8,18.1-35.1c11-6.2,25.7-5,35.7,3.1c4.6,3.8,7.5,8.8,9.8,14.3 C2005.9,230.9,2005.8,232.7,2007.3,233.9z"/>
  	<path d="M223.1,754.8c15.4-2.1,27.9,3.8,33.6,15.3c6.2,12.5,3.6,30.6-5.8,40.2c-9.9,10-26,12.9-38.4,6.7c-2.4-1.2-4.7-2.5-6.9-4 c-3.2-2.3-3.9-0.9-4,2.3c-0.4,9.4,3.9,17,9.2,24.2c0.9,1.2,2.6,2.1,2,3.7c-0.7,1.8-2.6,0.9-4,0.9c-11,0-22,0-33-0.1 c-1.4,0-3.4,0.6-4.2-0.8c-1.1-1.9,1-2.9,1.9-4.2c4.2-5.7,7.7-11.7,9.3-18.6c0.7-3.1,0.9-6.1,0.1-10.3c-7.4,7.1-15.5,10-25,9.9 c-18.8-0.4-31.7-13.2-31.7-31.9c-0.1-19.9,9.8-31.7,28.4-34c2.3-0.3,4.6-0.2,7,0.2c2.9,0.6,3.8-0.2,2.2-3.1 c-2.7-4.7-4.1-9.8-3.8-15.3c0.8-19.5,15.8-27.6,31-29.2c6-0.6,12,0,17.8,1.9c18.4,5.8,26.1,24.7,16.9,41.7 C225,751.7,224.2,753,223.1,754.8z"/>
  	<path d="M646.9,739.5c1.4-1.3,1.4-3,1.9-4.5c4.8-13,14.4-20.7,27.9-21.8c11.9-1,21.7,4.8,28.3,14.8c7.1,10.6,9.5,22,4.8,34.6 c-4.6,12.5-11.9,23-20.9,32.6c-13,13.9-27.4,26.3-39.7,40.9c-1.9,2.3-3.4,2.7-5.5,0.1c-12.7-15.8-28.1-28.9-41.9-43.6 c-10.6-11.3-18.3-24.1-20.6-39.7c-1.7-12.1,6.9-28.8,18.1-35.1c11-6.2,25.7-5,35.7,3.1c4.6,3.8,7.5,8.8,9.8,14.3 C645.5,736.6,645.4,738.4,646.9,739.5z"/>
  	<path d="M1615.7,776.2c-0.6,0.9-1.1,1.9-1.8,2.8c-19.4,23.1-38.8,46.1-58.1,69.2c-1.8,2.2-2.7,2.1-4.4,0 c-19.2-23-38.5-45.9-58-68.7c-2.5-2.9-2.3-4.6,0.1-7.5c18.6-22.2,37-44.5,55.5-66.9c4.4-5.3,4.7-5.3,9.1,0 c18.2,22.1,36.5,44.1,54.7,66.2C1613.9,772.8,1615.2,774.1,1615.7,776.2z"/>
  	<path d="M2007.1,847.8c-5.5,0-11,0.1-16.5,0c-1.4,0-3.3,0.9-4.1-0.8c-0.6-1.4,1-2.3,1.8-3.3c4.3-6,8.1-12.2,9.5-19.6 c0.2-1.3,0.5-2.6,0.5-4c0-1.8,0.4-4-1.3-5.1c-1.7-1.1-3,0.9-4.3,1.7c-20.4,11.7-46.4-2.8-47.5-26.3c-0.7-16.3,6.7-28.8,17-40.2 c11.1-12.2,24.1-22.6,34.5-35.4c2.6-3.2,5.2-6.5,7.7-9.8c1.3-1.7,2.5-2.9,4.2-0.5c12.6,18.1,30.2,31.4,45,47.4 c8.2,8.9,14.1,19.2,15.3,31.4c1.3,13.7-3.4,25.4-15.1,33.3c-11.1,7.4-22.6,6.9-33.7-0.4c-0.9-0.6-1.9-1.8-3.1-1.1 c-1.6,0.9-1.1,2.7-0.9,4.1c1,9.1,5,16.8,10.5,23.9c0.9,1.1,2.7,2.1,2,3.7c-0.8,1.9-2.9,1.1-4.5,1.1 C2018.4,847.8,2012.7,847.7,2007.1,847.8C2007.1,847.7,2007.1,847.7,2007.1,847.8z"/>
  	<path d="M255.2,1279.9c-0.6,0.9-1.1,1.9-1.8,2.8c-19.4,23.1-38.8,46.1-58.1,69.2c-1.8,2.2-2.7,2.1-4.4,0 c-19.2-23-38.5-45.9-58-68.7c-2.5-2.9-2.3-4.6,0.1-7.5c18.6-22.2,37-44.5,55.5-66.9c4.4-5.3,4.7-5.3,9.1,0 c18.2,22.1,36.5,44.1,54.7,66.2C253.5,1276.5,254.8,1277.8,255.2,1279.9z"/>
  	<path class="special" d="M1553.6,1351.5c-5.5,0-11,0.1-16.5,0c-1.4,0-3.3,0.9-4.1-0.8c-0.6-1.4,1-2.3,1.8-3.3c4.3-6,8.1-12.2,9.5-19.6 c0.2-1.3,0.5-2.6,0.5-4c0-1.8,0.4-4-1.3-5.1c-1.7-1.1-3,0.9-4.3,1.7c-20.4,11.7-46.4-2.8-47.5-26.3c-0.7-16.3,6.7-28.8,17-40.2 c11.1-12.2,24.1-22.6,34.5-35.4c2.6-3.2,5.2-6.5,7.7-9.8c1.3-1.7,2.5-2.9,4.2-0.5c12.6,18.1,30.2,31.4,45,47.4 c8.2,8.9,14.1,19.2,15.3,31.4c1.3,13.7-3.4,25.4-15.1,33.3c-11.1,7.4-22.6,6.9-33.7-0.4c-0.9-0.6-1.9-1.8-3.1-1.1 c-1.6,0.9-1.1,2.7-0.9,4.1c1,9.1,5,16.8,10.5,23.9c0.9,1.1,2.7,2.1,2,3.7c-0.8,1.9-2.9,1.1-4.5,1.1 C1564.9,1351.5,1559.3,1351.4,1553.6,1351.5C1553.6,1351.5,1553.6,1351.5,1553.6,1351.5z"/>
  	<path class="special" d="M676.6,1258.6c15.4-2.1,27.9,3.8,33.6,15.3c6.2,12.5,3.6,30.6-5.8,40.2c-9.9,10-26,12.9-38.4,6.7c-2.4-1.2-4.7-2.5-6.9-4 c-3.2-2.3-3.9-0.9-4,2.3c-0.4,9.4,3.9,17,9.2,24.2c0.9,1.2,2.6,2.1,2,3.7c-0.7,1.8-2.6,0.9-4,0.9c-11,0-22,0-33-0.1 c-1.4,0-3.4,0.6-4.2-0.8c-1.1-1.9,1-2.9,1.9-4.2c4.2-5.7,7.7-11.7,9.3-18.6c0.7-3.1,0.9-6.1,0.1-10.3c-7.4,7.1-15.5,10-25,9.9 c-18.8-0.4-31.7-13.2-31.7-31.9c-0.1-19.9,9.8-31.7,28.4-34c2.3-0.3,4.6-0.2,7,0.2c2.9,0.6,3.8-0.2,2.2-3.1 c-2.7-4.7-4.1-9.8-3.8-15.3c0.8-19.5,15.8-27.6,31-29.2c6-0.6,12,0,17.8,1.9c18.4,5.8,26.1,24.7,16.9,41.7 C678.4,1255.5,677.7,1256.7,676.6,1258.6z"/>
  	<path class="special" d="M1100.2,1243.3c1.4-1.3,1.4-3,1.9-4.5c4.8-13,14.4-20.7,27.9-21.8c11.9-1,21.7,4.8,28.3,14.8c7.1,10.6,9.5,22,4.8,34.6 c-4.6,12.5-11.9,23-20.9,32.6c-13,13.9-27.4,26.3-39.7,40.9c-1.9,2.3-3.4,2.7-5.5,0.1c-12.7-15.8-28.1-28.9-41.9-43.6 c-10.6-11.3-18.3-24.1-20.6-39.7c-1.7-12.1,6.9-28.8,18.1-35.1c11-6.2,25.7-5,35.7,3.1c4.6,3.8,7.5,8.8,9.8,14.3 C1098.8,1240.3,1098.7,1242.1,1100.2,1243.3z"/>
  	<path class="special" d="M2037,1258.6c15.4-2.1,27.9,3.8,33.6,15.3c6.2,12.5,3.6,30.6-5.8,40.2c-9.9,10-26,12.9-38.4,6.7c-2.4-1.2-4.7-2.5-6.9-4 c-3.2-2.3-3.9-0.9-4,2.3c-0.4,9.4,3.9,17,9.2,24.2c0.9,1.2,2.6,2.1,2,3.7c-0.7,1.8-2.6,0.9-4,0.9c-11,0-22,0-33-0.1 c-1.4,0-3.4,0.6-4.2-0.8c-1.1-1.9,1-2.9,1.9-4.2c4.2-5.7,7.7-11.7,9.3-18.6c0.7-3.1,0.9-6.1,0.1-10.3c-7.4,7.1-15.5,10-25,9.9 c-18.8-0.4-31.7-13.2-31.7-31.9c-0.1-19.9,9.8-31.7,28.4-34c2.3-0.3,4.6-0.2,7,0.2c2.9,0.6,3.8-0.2,2.2-3.1 c-2.7-4.7-4.1-9.8-3.8-15.3c0.8-19.5,15.8-27.6,31-29.2c6-0.6,12,0,17.8,1.9c18.4,5.8,26.1,24.7,16.9,41.7 C2038.9,1255.5,2038.1,1256.7,2037,1258.6z"/>
  </g>
  <polygon class="bolt" points="1123.8,870.4 1125,730.8 1093.3,761.5 1099.6,632.2 1077,644.2 1054.3,632.2 1054.3,829.6 1091.7,793.5  1091.7,870.3 1069.4,866.7 1108,918.8 1146.7,866.7 "/>
</svg>
